<?xml version="1.0" encoding="utf-8"?>
<!-- Generator: Adobe Illustrator 26.0.1, SVG Export Plug-In . SVG Version: 6.00 Build 0)  -->
<svg version="1.1" id="Layer_1" xmlns="http://www.w3.org/2000/svg" xmlns:xlink="http://www.w3.org/1999/xlink" x="0px" y="0px"
	 viewBox="0 0 821 349" style="enable-background:new 0 0 821 349;" xml:space="preserve">
<style type="text/css">
	.st0{fill:#EEEEEE;stroke:#DDDDDD;}
	.st1{fill:#CCCCCC;stroke:#000000;stroke-width:2;}
	.st2{fill:#FCFCFC;}
	.st3{fill:none;}
	.st4{fill:#FF0000;}
</style>
<g id="Layer_1-2">
	<path class="st0" d="M6.5,0.5h808c3.3,0,6,2.7,6,6v336c0,3.3-2.7,6-6,6H6.5c-3.3,0-6-2.7-6-6V6.5C0.5,3.2,3.2,0.5,6.5,0.5z"/>
</g>
<g id="Layer_2_00000030476609243033287240000018430727377111880625_">
	<path class="st1" d="M13.5,9.8h38c2.2,0,4,1.8,4,4v38c0,2.2-1.8,4-4,4h-38c-2.2,0-4-1.8-4-4v-38C9.5,11.6,11.3,9.8,13.5,9.8z"/>
	<path class="st1" d="M121.5,9.8h38c2.2,0,4,1.8,4,4v38c0,2.2-1.8,4-4,4h-38c-2.2,0-4-1.8-4-4v-38C117.5,11.6,119.3,9.8,121.5,9.8z"
		/>
	<path class="st1" d="M175.5,9.8h38c2.2,0,4,1.8,4,4v38c0,2.2-1.8,4-4,4h-38c-2.2,0-4-1.8-4-4v-38C171.5,11.6,173.3,9.8,175.5,9.8z"
		/>
	<path class="st1" d="M229.5,9.8h38c2.2,0,4,1.8,4,4v38c0,2.2-1.8,4-4,4h-38c-2.2,0-4-1.8-4-4v-38C225.5,11.6,227.3,9.8,229.5,9.8z"
		/>
	<path class="st1" d="M283.5,9.8h38c2.2,0,4,1.8,4,4v38c0,2.2-1.8,4-4,4h-38c-2.2,0-4-1.8-4-4v-38C279.5,11.6,281.3,9.8,283.5,9.8z"
		/>
	<path class="st1" d="M364.5,9.8h38c2.2,0,4,1.8,4,4v38c0,2.2-1.8,4-4,4h-38c-2.2,0-4-1.8-4-4v-38C360.5,11.6,362.3,9.8,364.5,9.8z"
		/>
	<path class="st1" d="M418.5,9.8h38c2.2,0,4,1.8,4,4v38c0,2.2-1.8,4-4,4h-38c-2.2,0-4-1.8-4-4v-38C414.5,11.6,416.3,9.8,418.5,9.8z"
		/>
	<path class="st1" d="M472.5,9.8h38c2.2,0,4,1.8,4,4v38c0,2.2-1.8,4-4,4h-38c-2.2,0-4-1.8-4-4v-38C468.5,11.6,470.3,9.8,472.5,9.8z"
		/>
	<path class="st1" d="M526.5,9.8h38c2.2,0,4,1.8,4,4v38c0,2.2-1.8,4-4,4h-38c-2.2,0-4-1.8-4-4v-38C522.5,11.6,524.3,9.8,526.5,9.8z"
		/>
	<path class="st1" d="M607.5,9.8h38c2.2,0,4,1.8,4,4v38c0,2.2-1.8,4-4,4h-38c-2.2,0-4-1.8-4-4v-38C603.5,11.6,605.3,9.8,607.5,9.8z"
		/>
	<path class="st1" d="M661.5,9.8h38c2.2,0,4,1.8,4,4v38c0,2.2-1.8,4-4,4h-38c-2.2,0-4-1.8-4-4v-38C657.5,11.6,659.3,9.8,661.5,9.8z"
		/>
	<path class="st1" d="M715.5,9.8h38c2.2,0,4,1.8,4,4v38c0,2.2-1.8,4-4,4h-38c-2.2,0-4-1.8-4-4v-38C711.5,11.6,713.3,9.8,715.5,9.8z"
		/>
	<path class="st1" d="M769.5,9.8h38c2.2,0,4,1.8,4,4v38c0,2.2-1.8,4-4,4h-38c-2.2,0-4-1.8-4-4v-38C765.5,11.6,767.3,9.8,769.5,9.8z"
		/>
	<path class="st1" d="M13.5,77.2h38c2.2,0,4,1.8,4,4v38c0,2.2-1.8,4-4,4h-38c-2.2,0-4-1.8-4-4v-38C9.5,79,11.3,77.2,13.5,77.2z"/>
	<path class="st1" d="M67.5,77.2h38c2.2,0,4,1.8,4,4v38c0,2.2-1.8,4-4,4h-38c-2.2,0-4-1.8-4-4v-38C63.5,79,65.3,77.2,67.5,77.2z"/>
	<path class="st1" d="M121.5,77.2h38c2.2,0,4,1.8,4,4v38c0,2.2-1.8,4-4,4h-38c-2.2,0-4-1.8-4-4v-38C117.5,79,119.3,77.2,121.5,77.2z
		"/>
	<path class="st1" d="M175.5,77.2h38c2.2,0,4,1.8,4,4v38c0,2.2-1.8,4-4,4h-38c-2.2,0-4-1.8-4-4v-38C171.5,79,173.3,77.2,175.5,77.2z
		"/>
	<path class="st1" d="M229.5,77.2h38c2.2,0,4,1.8,4,4v38c0,2.2-1.8,4-4,4h-38c-2.2,0-4-1.8-4-4v-38C225.5,79,227.3,77.2,229.5,77.2z
		"/>
	<path class="st1" d="M283.5,77.2h38c2.2,0,4,1.8,4,4v38c0,2.2-1.8,4-4,4h-38c-2.2,0-4-1.8-4-4v-38C279.5,79,281.3,77.2,283.5,77.2z
		"/>
	<path class="st1" d="M337.5,77.2h38c2.2,0,4,1.8,4,4v38c0,2.2-1.8,4-4,4h-38c-2.2,0-4-1.8-4-4v-38C333.5,79,335.3,77.2,337.5,77.2z
		"/>
	<path class="st1" d="M391.5,77.2h38c2.2,0,4,1.8,4,4v38c0,2.2-1.8,4-4,4h-38c-2.2,0-4-1.8-4-4v-38C387.5,79,389.3,77.2,391.5,77.2z
		"/>
	<path class="st1" d="M445.5,77.2h38c2.2,0,4,1.8,4,4v38c0,2.2-1.8,4-4,4h-38c-2.2,0-4-1.8-4-4v-38C441.5,79,443.3,77.2,445.5,77.2z
		"/>
	<path class="st1" d="M499.5,77.2h38c2.2,0,4,1.8,4,4v38c0,2.2-1.8,4-4,4h-38c-2.2,0-4-1.8-4-4v-38C495.5,79,497.3,77.2,499.5,77.2z
		"/>
	<path class="st1" d="M553.5,77.2h38c2.2,0,4,1.8,4,4v38c0,2.2-1.8,4-4,4h-38c-2.2,0-4-1.8-4-4v-38C549.5,79,551.3,77.2,553.5,77.2z
		"/>
	<path class="st1" d="M607.5,77.2h38c2.2,0,4,1.8,4,4v38c0,2.2-1.8,4-4,4h-38c-2.2,0-4-1.8-4-4v-38C603.5,79,605.3,77.2,607.5,77.2z
		"/>
	<path class="st1" d="M661.5,77.2h38c2.2,0,4,1.8,4,4v38c0,2.2-1.8,4-4,4h-38c-2.2,0-4-1.8-4-4v-38C657.5,79,659.3,77.2,661.5,77.2z
		"/>
	<path class="st1" d="M769.5,77.2h38c2.2,0,4,1.8,4,4v38c0,2.2-1.8,4-4,4h-38c-2.2,0-4-1.8-4-4v-38C765.5,79,767.3,77.2,769.5,77.2z
		"/>
	<path class="st1" d="M13.5,131.2h65c2.2,0,4,1.8,4,4v38c0,2.2-1.8,4-4,4h-65c-2.2,0-4-1.8-4-4v-38C9.5,133,11.3,131.2,13.5,131.2z"
		/>
	<path class="st1" d="M94.5,131.2h38c2.2,0,4,1.8,4,4v38c0,2.2-1.8,4-4,4h-38c-2.2,0-4-1.8-4-4v-38C90.5,133,92.3,131.2,94.5,131.2z
		"/>
	<path class="st1" d="M148.5,131.2h38c2.2,0,4,1.8,4,4v38c0,2.2-1.8,4-4,4h-38c-2.2,0-4-1.8-4-4v-38
		C144.5,133,146.3,131.2,148.5,131.2z"/>
	<path class="st1" d="M202.5,131.2h38c2.2,0,4,1.8,4,4v38c0,2.2-1.8,4-4,4h-38c-2.2,0-4-1.8-4-4v-38
		C198.5,133,200.3,131.2,202.5,131.2z"/>
	<path class="st1" d="M256.5,131.2h38c2.2,0,4,1.8,4,4v38c0,2.2-1.8,4-4,4h-38c-2.2,0-4-1.8-4-4v-38
		C252.5,133,254.3,131.2,256.5,131.2z"/>
	<path class="st1" d="M310.5,131.2h38c2.2,0,4,1.8,4,4v38c0,2.2-1.8,4-4,4h-38c-2.2,0-4-1.8-4-4v-38
		C306.5,133,308.3,131.2,310.5,131.2z"/>
	<path class="st1" d="M364.5,131.2h38c2.2,0,4,1.8,4,4v38c0,2.2-1.8,4-4,4h-38c-2.2,0-4-1.8-4-4v-38
		C360.5,133,362.3,131.2,364.5,131.2z"/>
	<path class="st1" d="M418.5,131.2h38c2.2,0,4,1.8,4,4v38c0,2.2-1.8,4-4,4h-38c-2.2,0-4-1.8-4-4v-38
		C414.5,133,416.3,131.2,418.5,131.2z"/>
	<path class="st1" d="M472.5,131.2h38c2.2,0,4,1.8,4,4v38c0,2.2-1.8,4-4,4h-38c-2.2,0-4-1.8-4-4v-38
		C468.5,133,470.3,131.2,472.5,131.2z"/>
	<path class="st1" d="M526.5,131.2h38c2.2,0,4,1.8,4,4v38c0,2.2-1.8,4-4,4h-38c-2.2,0-4-1.8-4-4v-38
		C522.5,133,524.3,131.2,526.5,131.2z"/>
	<path class="st1" d="M580.5,131.2h38c2.2,0,4,1.8,4,4v38c0,2.2-1.8,4-4,4h-38c-2.2,0-4-1.8-4-4v-38
		C576.5,133,578.3,131.2,580.5,131.2z"/>
	<path class="st1" d="M634.5,131.2h38c2.2,0,4,1.8,4,4v38c0,2.2-1.8,4-4,4h-38c-2.2,0-4-1.8-4-4v-38
		C630.5,133,632.3,131.2,634.5,131.2z"/>
	<path class="st1" d="M688.5,131.2h38c2.2,0,4,1.8,4,4v38c0,2.2-1.8,4-4,4h-38c-2.2,0-4-1.8-4-4v-38
		C684.5,133,686.3,131.2,688.5,131.2z"/>
	<path class="st1" d="M81,239.2h38c2.2,0,4,1.8,4,4v38c0,2.2-1.8,4-4,4H81c-2.2,0-4-1.8-4-4v-38C77,241,78.8,239.2,81,239.2
		C81,239.2,81,239.2,81,239.2z"/>
	<path class="st1" d="M13.5,185.2H92c2.2,0,4,1.8,4,4v38c0,2.2-1.8,4-4,4H13.5c-2.2,0-4-1.8-4-4v-38C9.5,187,11.3,185.2,13.5,185.2z
		"/>
	<path class="st1" d="M108,185.2h38c2.2,0,4,1.8,4,4v38c0,2.2-1.8,4-4,4h-38c-2.2,0-4-1.8-4-4v-38C104,187,105.8,185.2,108,185.2z"
		/>
	<path class="st1" d="M162,185.2h38c2.2,0,4,1.8,4,4v38c0,2.2-1.8,4-4,4h-38c-2.2,0-4-1.8-4-4v-38C158,187,159.8,185.2,162,185.2z"
		/>
	<path class="st1" d="M216,185.2h38c2.2,0,4,1.8,4,4v38c0,2.2-1.8,4-4,4h-38c-2.2,0-4-1.8-4-4v-38C212,187,213.8,185.2,216,185.2z"
		/>
	<path class="st1" d="M270,185.2h38c2.2,0,4,1.8,4,4v38c0,2.2-1.8,4-4,4h-38c-2.2,0-4-1.8-4-4v-38C266,187,267.8,185.2,270,185.2z"
		/>
	<path class="st1" d="M324,185.2h38c2.2,0,4,1.8,4,4v38c0,2.2-1.8,4-4,4h-38c-2.2,0-4-1.8-4-4v-38C320,187,321.8,185.2,324,185.2z"
		/>
	<path class="st1" d="M378,185.2h38c2.2,0,4,1.8,4,4v38c0,2.2-1.8,4-4,4h-38c-2.2,0-4-1.8-4-4v-38C374,187,375.8,185.2,378,185.2z"
		/>
	<path class="st1" d="M432,185.2h38c2.2,0,4,1.8,4,4v38c0,2.2-1.8,4-4,4h-38c-2.2,0-4-1.8-4-4v-38C428,187,429.8,185.2,432,185.2z"
		/>
	<path class="st1" d="M486,185.2h38c2.2,0,4,1.8,4,4v38c0,2.2-1.8,4-4,4h-38c-2.2,0-4-1.8-4-4v-38C482,187,483.8,185.2,486,185.2z"
		/>
	<path class="st1" d="M540,185.2h38c2.2,0,4,1.8,4,4v38c0,2.2-1.8,4-4,4h-38c-2.2,0-4-1.8-4-4v-38C536,187,537.8,185.2,540,185.2z"
		/>
	<path class="st1" d="M594,185.2h38c2.2,0,4,1.8,4,4v38c0,2.2-1.8,4-4,4h-38c-2.2,0-4-1.8-4-4v-38C590,187,591.8,185.2,594,185.2z"
		/>
	<path class="st1" d="M648,185.2h38c2.2,0,4,1.8,4,4v38c0,2.2-1.8,4-4,4h-38c-2.2,0-4-1.8-4-4v-38C644,187,645.8,185.2,648,185.2z"
		/>
	<path class="st1" d="M13.5,239.2H65c2.2,0,4,1.8,4,4v38c0,2.2-1.8,4-4,4H13.5c-2.2,0-4-1.8-4-4v-38C9.5,241,11.3,239.2,13.5,239.2
		C13.5,239.2,13.5,239.2,13.5,239.2z"/>
	<path class="st1" d="M135,239.2h38c2.2,0,4,1.8,4,4v38c0,2.2-1.8,4-4,4h-38c-2.2,0-4-1.8-4-4v-38C131,241,132.8,239.2,135,239.2
		L135,239.2z"/>
	<path class="st1" d="M189,239.2h38c2.2,0,4,1.8,4,4v38c0,2.2-1.8,4-4,4h-38c-2.2,0-4-1.8-4-4v-38C185,241,186.8,239.2,189,239.2
		L189,239.2z"/>
	<path class="st1" d="M243,239.2h38c2.2,0,4,1.8,4,4v38c0,2.2-1.8,4-4,4h-38c-2.2,0-4-1.8-4-4v-38C239,241,240.8,239.2,243,239.2
		L243,239.2z"/>
	<path class="st1" d="M297,239.2h38c2.2,0,4,1.8,4,4v38c0,2.2-1.8,4-4,4h-38c-2.2,0-4-1.8-4-4v-38C293,241,294.8,239.2,297,239.2
		C297,239.2,297,239.2,297,239.2z"/>
	<path class="st1" d="M351,239.2h38c2.2,0,4,1.8,4,4v38c0,2.2-1.8,4-4,4h-38c-2.2,0-4-1.8-4-4v-38C347,241,348.8,239.2,351,239.2
		C351,239.2,351,239.2,351,239.2z"/>
	<path class="st1" d="M405,239.2h38c2.2,0,4,1.8,4,4v38c0,2.2-1.8,4-4,4h-38c-2.2,0-4-1.8-4-4v-38C401,241,402.8,239.2,405,239.2
		C405,239.2,405,239.2,405,239.2z"/>
	<path class="st1" d="M459,239.2h38c2.2,0,4,1.8,4,4v38c0,2.2-1.8,4-4,4h-38c-2.2,0-4-1.8-4-4v-38C455,241,456.8,239.2,459,239.2
		C459,239.2,459,239.2,459,239.2z"/>
	<path class="st1" d="M513,239.2h38c2.2,0,4,1.8,4,4v38c0,2.2-1.8,4-4,4h-38c-2.2,0-4-1.8-4-4v-38C509,241,510.8,239.2,513,239.2
		L513,239.2z"/>
	<path class="st1" d="M567,239.2h38c2.2,0,4,1.8,4,4v38c0,2.2-1.8,4-4,4h-38c-2.2,0-4-1.8-4-4v-38C563,241,564.8,239.2,567,239.2
		L567,239.2z"/>
	<path class="st1" d="M621,239.2h186.5c2.2,0,4,1.8,4,4v38c0,2.2-1.8,4-4,4H621c-2.2,0-4-1.8-4-4v-38C617,241,618.8,239.2,621,239.2
		L621,239.2z"/>
	<path class="st1" d="M13.5,293.2H65c2.2,0,4,1.8,4,4v38c0,2.2-1.8,4-4,4H13.5c-2.2,0-4-1.8-4-4v-38C9.5,295,11.3,293.2,13.5,293.2z
		"/>
	<path class="st1" d="M81,293.2h51.5c2.2,0,4,1.8,4,4v38c0,2.2-1.8,4-4,4H81c-2.2,0-4-1.8-4-4v-38C77,295,78.8,293.2,81,293.2z"/>
	<path class="st1" d="M148.5,293.2H200c2.2,0,4,1.8,4,4v38c0,2.2-1.8,4-4,4h-51.5c-2.2,0-4-1.8-4-4v-38
		C144.5,295,146.3,293.2,148.5,293.2z"/>
	<path class="st1" d="M216,293.2h321.5c2.2,0,4,1.8,4,4v38c0,2.2-1.8,4-4,4H216c-2.2,0-4-1.8-4-4v-38C212,295,213.8,293.2,216,293.2
		z"/>
	<path class="st1" d="M553.5,293.2H605c2.2,0,4,1.8,4,4v38c0,2.2-1.8,4-4,4h-51.5c-2.2,0-4-1.8-4-4v-38
		C549.5,295,551.3,293.2,553.5,293.2z"/>
	<path class="st1" d="M621,293.2h51.5c2.2,0,4,1.8,4,4v38c0,2.2-1.8,4-4,4H621c-2.2,0-4-1.8-4-4v-38C617,295,618.8,293.2,621,293.2z
		"/>
	<path class="st1" d="M688.5,293.2H740c2.2,0,4,1.8,4,4v38c0,2.2-1.8,4-4,4h-51.5c-2.2,0-4-1.8-4-4v-38
		C684.5,295,686.3,293.2,688.5,293.2z"/>
	<path class="st1" d="M756,293.2h51.5c2.2,0,4,1.8,4,4v38c0,2.2-1.8,4-4,4H756c-2.2,0-4-1.8-4-4v-38C752,295,753.8,293.2,756,293.2z
		"/>
	<path class="st1" d="M811.5,227.2v-92c0-2.2-1.8-4-4-4H756c-2.2,0-4,1.8-4,4v50h-50.8c-2.2,0-4,1.8-4,4v38c0,2.2,1.8,4,4,4h106.3
		C809.7,231.2,811.5,229.4,811.5,227.2z"/>
</g>
<g id="Layer_3">
	<path class="st2" d="M14.5,10.8h36c2.2,0,4,1.8,4,4v34c0,2.2-1.8,4-4,4h-36c-2.2,0-4-1.8-4-4v-34C10.5,12.6,12.3,10.8,14.5,10.8z"
		/>
	<path class="st2" d="M122.5,10.8h36c2.2,0,4,1.8,4,4v34c0,2.2-1.8,4-4,4h-36c-2.2,0-4-1.8-4-4v-34
		C118.5,12.6,120.3,10.8,122.5,10.8z"/>
	<path class="st2" d="M176.5,10.8h36c2.2,0,4,1.8,4,4v34c0,2.2-1.8,4-4,4h-36c-2.2,0-4-1.8-4-4v-34
		C172.5,12.6,174.3,10.8,176.5,10.8z"/>
	<path class="st2" d="M230.5,10.8h36c2.2,0,4,1.8,4,4v34c0,2.2-1.8,4-4,4h-36c-2.2,0-4-1.8-4-4v-34
		C226.5,12.6,228.3,10.8,230.5,10.8z"/>
	<path class="st2" d="M284.5,10.8h36c2.2,0,4,1.8,4,4v34c0,2.2-1.8,4-4,4h-36c-2.2,0-4-1.8-4-4v-34
		C280.5,12.6,282.3,10.8,284.5,10.8z"/>
	<path class="st2" d="M365.5,10.8h36c2.2,0,4,1.8,4,4v34c0,2.2-1.8,4-4,4h-36c-2.2,0-4-1.8-4-4v-34
		C361.5,12.6,363.3,10.8,365.5,10.8z"/>
	<path class="st2" d="M419.5,10.8h36c2.2,0,4,1.8,4,4v34c0,2.2-1.8,4-4,4h-36c-2.2,0-4-1.8-4-4v-34
		C415.5,12.6,417.3,10.8,419.5,10.8z"/>
	<path class="st2" d="M473.5,10.8h36c2.2,0,4,1.8,4,4v34c0,2.2-1.8,4-4,4h-36c-2.2,0-4-1.8-4-4v-34
		C469.5,12.6,471.3,10.8,473.5,10.8z"/>
	<path class="st2" d="M527.5,10.8h36c2.2,0,4,1.8,4,4v34c0,2.2-1.8,4-4,4h-36c-2.2,0-4-1.8-4-4v-34
		C523.5,12.6,525.3,10.8,527.5,10.8z"/>
	<path class="st2" d="M608.5,10.8h36c2.2,0,4,1.8,4,4v34c0,2.2-1.8,4-4,4h-36c-2.2,0-4-1.8-4-4v-34
		C604.5,12.6,606.3,10.8,608.5,10.8z"/>
	<path class="st2" d="M662.5,10.8h36c2.2,0,4,1.8,4,4v34c0,2.2-1.8,4-4,4h-36c-2.2,0-4-1.8-4-4v-34
		C658.5,12.6,660.3,10.8,662.5,10.8z"/>
	<path class="st2" d="M716.5,10.8h36c2.2,0,4,1.8,4,4v34c0,2.2-1.8,4-4,4h-36c-2.2,0-4-1.8-4-4v-34
		C712.5,12.6,714.3,10.8,716.5,10.8z"/>
	<path class="st2" d="M770.5,10.8h36c2.2,0,4,1.8,4,4v34c0,2.2-1.8,4-4,4h-36c-2.2,0-4-1.8-4-4v-34
		C766.5,12.6,768.3,10.8,770.5,10.8z"/>
	<path class="st2" d="M14.5,78.2h36c2.2,0,4,1.8,4,4v34c0,2.2-1.8,4-4,4h-36c-2.2,0-4-1.8-4-4v-34C10.5,80,12.3,78.2,14.5,78.2z"/>
	<path class="st2" d="M68.5,78.2h36c2.2,0,4,1.8,4,4v34c0,2.2-1.8,4-4,4h-36c-2.2,0-4-1.8-4-4v-34C64.5,80,66.3,78.2,68.5,78.2z"/>
	<path class="st2" d="M122.5,78.2h36c2.2,0,4,1.8,4,4v34c0,2.2-1.8,4-4,4h-36c-2.2,0-4-1.8-4-4v-34C118.5,80,120.3,78.2,122.5,78.2z
		"/>
	<path class="st2" d="M176.5,78.2h36c2.2,0,4,1.8,4,4v34c0,2.2-1.8,4-4,4h-36c-2.2,0-4-1.8-4-4v-34C172.5,80,174.3,78.2,176.5,78.2z
		"/>
	<path class="st2" d="M230.5,78.2h36c2.2,0,4,1.8,4,4v34c0,2.2-1.8,4-4,4h-36c-2.2,0-4-1.8-4-4v-34C226.5,80,228.3,78.2,230.5,78.2z
		"/>
	<path class="st2" d="M284.5,78.2h36c2.2,0,4,1.8,4,4v34c0,2.2-1.8,4-4,4h-36c-2.2,0-4-1.8-4-4v-34C280.5,80,282.3,78.2,284.5,78.2z
		"/>
	<path class="st2" d="M338.5,78.2h36c2.2,0,4,1.8,4,4v34c0,2.2-1.8,4-4,4h-36c-2.2,0-4-1.8-4-4v-34C334.5,80,336.3,78.2,338.5,78.2z
		"/>
	<path class="st2" d="M392.5,78.2h36c2.2,0,4,1.8,4,4v34c0,2.2-1.8,4-4,4h-36c-2.2,0-4-1.8-4-4v-34C388.5,80,390.3,78.2,392.5,78.2z
		"/>
	<path class="st2" d="M446.5,78.2h36c2.2,0,4,1.8,4,4v34c0,2.2-1.8,4-4,4h-36c-2.2,0-4-1.8-4-4v-34C442.5,80,444.3,78.2,446.5,78.2z
		"/>
	<path class="st2" d="M500.5,78.2h36c2.2,0,4,1.8,4,4v34c0,2.2-1.8,4-4,4h-36c-2.2,0-4-1.8-4-4v-34C496.5,80,498.3,78.2,500.5,78.2z
		"/>
	<path class="st2" d="M554.5,78.2h36c2.2,0,4,1.8,4,4v34c0,2.2-1.8,4-4,4h-36c-2.2,0-4-1.8-4-4v-34C550.5,80,552.3,78.2,554.5,78.2z
		"/>
	<path class="st2" d="M608.5,78.2h36c2.2,0,4,1.8,4,4v34c0,2.2-1.8,4-4,4h-36c-2.2,0-4-1.8-4-4v-34C604.5,80,606.3,78.2,608.5,78.2z
		"/>
	<path class="st2" d="M662.5,78.2h36c2.2,0,4,1.8,4,4v34c0,2.2-1.8,4-4,4h-36c-2.2,0-4-1.8-4-4v-34C658.5,80,660.3,78.2,662.5,78.2z
		"/>
	<path class="st2" d="M770.5,78.2h36c2.2,0,4,1.8,4,4v34c0,2.2-1.8,4-4,4h-36c-2.2,0-4-1.8-4-4v-34C766.5,80,768.3,78.2,770.5,78.2z
		"/>
	<path class="st2" d="M14.5,132.2h63c2.2,0,4,1.8,4,4v34c0,2.2-1.8,4-4,4h-63c-2.2,0-4-1.8-4-4v-34C10.5,134,12.3,132.2,14.5,132.2z
		"/>
	<path class="st2" d="M95.5,132.2h36c2.2,0,4,1.8,4,4v34c0,2.2-1.8,4-4,4h-36c-2.2,0-4-1.8-4-4v-34C91.5,134,93.3,132.2,95.5,132.2z
		"/>
	<path class="st2" d="M149.5,132.2h36c2.2,0,4,1.8,4,4v34c0,2.2-1.8,4-4,4h-36c-2.2,0-4-1.8-4-4v-34
		C145.5,134,147.3,132.2,149.5,132.2z"/>
	<path class="st2" d="M203.5,132.2h36c2.2,0,4,1.8,4,4v34c0,2.2-1.8,4-4,4h-36c-2.2,0-4-1.8-4-4v-34
		C199.5,134,201.3,132.2,203.5,132.2z"/>
	<path class="st2" d="M257.5,132.2h36c2.2,0,4,1.8,4,4v34c0,2.2-1.8,4-4,4h-36c-2.2,0-4-1.8-4-4v-34
		C253.5,134,255.3,132.2,257.5,132.2z"/>
	<path class="st2" d="M311.5,132.2h36c2.2,0,4,1.8,4,4v34c0,2.2-1.8,4-4,4h-36c-2.2,0-4-1.8-4-4v-34
		C307.5,134,309.3,132.2,311.5,132.2z"/>
	<path class="st2" d="M365.5,132.2h36c2.2,0,4,1.8,4,4v34c0,2.2-1.8,4-4,4h-36c-2.2,0-4-1.8-4-4v-34
		C361.5,134,363.3,132.2,365.5,132.2z"/>
	<path class="st2" d="M419.5,132.2h36c2.2,0,4,1.8,4,4v34c0,2.2-1.8,4-4,4h-36c-2.2,0-4-1.8-4-4v-34
		C415.5,134,417.3,132.2,419.5,132.2z"/>
	<path class="st2" d="M473.5,132.2h36c2.2,0,4,1.8,4,4v34c0,2.2-1.8,4-4,4h-36c-2.2,0-4-1.8-4-4v-34
		C469.5,134,471.3,132.2,473.5,132.2z"/>
	<path class="st2" d="M527.5,132.2h36c2.2,0,4,1.8,4,4v34c0,2.2-1.8,4-4,4h-36c-2.2,0-4-1.8-4-4v-34
		C523.5,134,525.3,132.2,527.5,132.2z"/>
	<path class="st2" d="M581.5,132.2h36c2.2,0,4,1.8,4,4v34c0,2.2-1.8,4-4,4h-36c-2.2,0-4-1.8-4-4v-34
		C577.5,134,579.3,132.2,581.5,132.2z"/>
	<path class="st2" d="M635.5,132.2h36c2.2,0,4,1.8,4,4v34c0,2.2-1.8,4-4,4h-36c-2.2,0-4-1.8-4-4v-34
		C631.5,134,633.3,132.2,635.5,132.2z"/>
	<path class="st2" d="M689.5,132.2h36c2.2,0,4,1.8,4,4v34c0,2.2-1.8,4-4,4h-36c-2.2,0-4-1.8-4-4v-34
		C685.5,134,687.3,132.2,689.5,132.2z"/>
	<path class="st2" d="M82,240.2h36c2.2,0,4,1.8,4,4v34c0,2.2-1.8,4-4,4H82c-2.2,0-4-1.8-4-4v-34C78,242,79.8,240.2,82,240.2
		C82,240.2,82,240.2,82,240.2z"/>
	<path class="st2" d="M14.5,186.2H91c2.2,0,4,1.8,4,4v34c0,2.2-1.8,4-4,4H14.5c-2.2,0-4-1.8-4-4v-34C10.5,188,12.3,186.2,14.5,186.2
		z"/>
	<path class="st2" d="M109,186.2h36c2.2,0,4,1.8,4,4v34c0,2.2-1.8,4-4,4h-36c-2.2,0-4-1.8-4-4v-34C105,188,106.8,186.2,109,186.2z"
		/>
	<path class="st2" d="M163,186.2h36c2.2,0,4,1.8,4,4v34c0,2.2-1.8,4-4,4h-36c-2.2,0-4-1.8-4-4v-34C159,188,160.8,186.2,163,186.2z"
		/>
	<path class="st2" d="M217,186.2h36c2.2,0,4,1.8,4,4v34c0,2.2-1.8,4-4,4h-36c-2.2,0-4-1.8-4-4v-34C213,188,214.8,186.2,217,186.2z"
		/>
	<path class="st2" d="M271,186.2h36c2.2,0,4,1.8,4,4v34c0,2.2-1.8,4-4,4h-36c-2.2,0-4-1.8-4-4v-34C267,188,268.8,186.2,271,186.2z"
		/>
	<path class="st2" d="M325,186.2h36c2.2,0,4,1.8,4,4v34c0,2.2-1.8,4-4,4h-36c-2.2,0-4-1.8-4-4v-34C321,188,322.8,186.2,325,186.2z"
		/>
	<path class="st2" d="M379,186.2h36c2.2,0,4,1.8,4,4v34c0,2.2-1.8,4-4,4h-36c-2.2,0-4-1.8-4-4v-34C375,188,376.8,186.2,379,186.2z"
		/>
	<path class="st2" d="M433,186.2h36c2.2,0,4,1.8,4,4v34c0,2.2-1.8,4-4,4h-36c-2.2,0-4-1.8-4-4v-34C429,188,430.8,186.2,433,186.2z"
		/>
	<path class="st2" d="M487,186.2h36c2.2,0,4,1.8,4,4v34c0,2.2-1.8,4-4,4h-36c-2.2,0-4-1.8-4-4v-34C483,188,484.8,186.2,487,186.2z"
		/>
	<path class="st2" d="M541,186.2h36c2.2,0,4,1.8,4,4v34c0,2.2-1.8,4-4,4h-36c-2.2,0-4-1.8-4-4v-34C537,188,538.8,186.2,541,186.2z"
		/>
	<path class="st2" d="M595,186.2h36c2.2,0,4,1.8,4,4v34c0,2.2-1.8,4-4,4h-36c-2.2,0-4-1.8-4-4v-34C591,188,592.8,186.2,595,186.2z"
		/>
	<path class="st2" d="M649,186.2h36c2.2,0,4,1.8,4,4v34c0,2.2-1.8,4-4,4h-36c-2.2,0-4-1.8-4-4v-34C645,188,646.8,186.2,649,186.2z"
		/>
	<path class="st2" d="M14.5,240.2H64c2.2,0,4,1.8,4,4v34c0,2.2-1.8,4-4,4H14.5c-2.2,0-4-1.8-4-4v-34C10.5,242,12.3,240.2,14.5,240.2
		C14.5,240.2,14.5,240.2,14.5,240.2z"/>
	<path class="st2" d="M136,240.2h36c2.2,0,4,1.8,4,4v34c0,2.2-1.8,4-4,4h-36c-2.2,0-4-1.8-4-4v-34C132,242,133.8,240.2,136,240.2
		L136,240.2z"/>
	<path class="st2" d="M190,240.2h36c2.2,0,4,1.8,4,4v34c0,2.2-1.8,4-4,4h-36c-2.2,0-4-1.8-4-4v-34C186,242,187.8,240.2,190,240.2
		L190,240.2z"/>
	<path class="st2" d="M244,240.2h36c2.2,0,4,1.8,4,4v34c0,2.2-1.8,4-4,4h-36c-2.2,0-4-1.8-4-4v-34C240,242,241.8,240.2,244,240.2
		L244,240.2z"/>
	<path class="st2" d="M298,240.2h36c2.2,0,4,1.8,4,4v34c0,2.2-1.8,4-4,4h-36c-2.2,0-4-1.8-4-4v-34C294,242,295.8,240.2,298,240.2
		C298,240.2,298,240.2,298,240.2z"/>
	<path class="st2" d="M352,240.2h36c2.2,0,4,1.8,4,4v34c0,2.2-1.8,4-4,4h-36c-2.2,0-4-1.8-4-4v-34C348,242,349.8,240.2,352,240.2
		C352,240.2,352,240.2,352,240.2z"/>
	<path class="st2" d="M406,240.2h36c2.2,0,4,1.8,4,4v34c0,2.2-1.8,4-4,4h-36c-2.2,0-4-1.8-4-4v-34C402,242,403.8,240.2,406,240.2
		C406,240.2,406,240.2,406,240.2z"/>
	<path class="st2" d="M460,240.2h36c2.2,0,4,1.8,4,4v34c0,2.2-1.8,4-4,4h-36c-2.2,0-4-1.8-4-4v-34C456,242,457.8,240.2,460,240.2
		C460,240.2,460,240.2,460,240.2z"/>
	<path class="st2" d="M514,240.2h36c2.2,0,4,1.8,4,4v34c0,2.2-1.8,4-4,4h-36c-2.2,0-4-1.8-4-4v-34C510,242,511.8,240.2,514,240.2
		L514,240.2z"/>
	<path class="st2" d="M568,240.2h36c2.2,0,4,1.8,4,4v34c0,2.2-1.8,4-4,4h-36c-2.2,0-4-1.8-4-4v-34C564,242,565.8,240.2,568,240.2
		L568,240.2z"/>
	<path class="st2" d="M622,240.2h184.5c2.2,0,4,1.8,4,4v34c0,2.2-1.8,4-4,4H622c-2.2,0-4-1.8-4-4v-34C618,242,619.8,240.2,622,240.2
		L622,240.2z"/>
	<path class="st2" d="M14.5,294.2H64c2.2,0,4,1.8,4,4v34c0,2.2-1.8,4-4,4H14.5c-2.2,0-4-1.8-4-4v-34C10.5,296,12.3,294.2,14.5,294.2
		z"/>
	<path class="st2" d="M82,294.2h49.5c2.2,0,4,1.8,4,4v34c0,2.2-1.8,4-4,4H82c-2.2,0-4-1.8-4-4v-34C78,296,79.8,294.2,82,294.2z"/>
	<path class="st2" d="M149.5,294.2H199c2.2,0,4,1.8,4,4v34c0,2.2-1.8,4-4,4h-49.5c-2.2,0-4-1.8-4-4v-34
		C145.5,296,147.3,294.2,149.5,294.2z"/>
	<path class="st2" d="M217,294.2h319.5c2.2,0,4,1.8,4,4v34c0,2.2-1.8,4-4,4H217c-2.2,0-4-1.8-4-4v-34C213,296,214.8,294.2,217,294.2
		z"/>
	<path class="st2" d="M554.5,294.2H604c2.2,0,4,1.8,4,4v34c0,2.2-1.8,4-4,4h-49.5c-2.2,0-4-1.8-4-4v-34
		C550.5,296,552.3,294.2,554.5,294.2z"/>
	<path class="st2" d="M622,294.2h49.5c2.2,0,4,1.8,4,4v34c0,2.2-1.8,4-4,4H622c-2.2,0-4-1.8-4-4v-34C618,296,619.8,294.2,622,294.2z
		"/>
	<path class="st2" d="M689.5,294.2H739c2.2,0,4,1.8,4,4v34c0,2.2-1.8,4-4,4h-49.5c-2.2,0-4-1.8-4-4v-34
		C685.5,296,687.3,294.2,689.5,294.2z"/>
	<path class="st2" d="M757,294.2h49.5c2.2,0,4,1.8,4,4v34c0,2.2-1.8,4-4,4H757c-2.2,0-4-1.8-4-4v-34C753,296,754.8,294.2,757,294.2z
		"/>
	<path class="st2" d="M757,132.2h49.5c2.2,0,4,1.8,4,4v88c0,2.2-1.8,4-4,4H757c-2.2,0-4-1.8-4-4v-88C753,134,754.8,132.2,757,132.2z
		"/>
	<path class="st2" d="M701.2,186.2h106.3c1.7,0,3,1.3,3,3v38c0,1.7-1.3,3-3,3H701.2c-1.7,0-3-1.3-3-3v-38
		C698.2,187.5,699.5,186.2,701.2,186.2z"/>
	<path class="st3" d="M757,132.2h49.5c2.2,0,4,1.8,4,4v88c0,2.2-1.8,4-4,4H757c-2.2,0-4-1.8-4-4v-88C753,134,754.8,132.2,757,132.2z
		"/>
</g>
<g id="Layer_4">
	<path d="M141.4,29.3h-3.9v2.1h2.3v1.2h-2.3V36h-1.2v-7.9h5.1L141.4,29.3L141.4,29.3z"/>
	<path d="M144.7,36h-1.2v-6.1h-1.4v-0.8c0.8-0.1,1.5-0.3,1.6-1h1L144.7,36L144.7,36z"/>
	<path d="M193.8,29.3h-3.9v2.1h2.3v1.2h-2.3V36h-1.2v-7.9h5.1L193.8,29.3L193.8,29.3z"/>
	<path d="M200.4,36h-5.7c0.1-2.3,1.5-3.4,3-4.3c1.1-0.6,1.3-1,1.3-1.5s-0.4-1-1.5-1c-0.7,0-1.4,0.3-1.9,0.8l-0.6-1
		c0.7-0.7,1.7-1.1,2.7-1.1c1.6,0,2.7,0.7,2.7,2.2c0,1.2-0.6,1.7-2,2.6c-1.4,0.9-1.9,1.4-2.1,2.2h4.2L200.4,36L200.4,36z"/>
	<path d="M247.9,29.3H244v2.1h2.3v1.2H244V36h-1.2v-7.9h5.1L247.9,29.3L247.9,29.3z"/>
	<path d="M254.5,33.7c0,1.6-1.1,2.5-3,2.5c-1.1,0-2.2-0.5-2.9-1.3l0.9-0.8c0.5,0.6,1.2,0.9,2,0.9c1.3,0,1.7-0.5,1.7-1.3
		s-0.6-1.2-1.4-1.2h-0.7v-1.2h0.7c0.5,0.1,1-0.3,1.1-0.9c0-0.1,0-0.1,0-0.2c0-0.5-0.3-1.1-1.5-1.1c-0.6,0-1.2,0.3-1.6,0.7L249,29
		c0.6-0.7,1.5-1.1,2.5-1.1c1.5,0,2.7,0.8,2.7,2.2c0.1,0.7-0.3,1.4-1,1.7C254,32.1,254.5,32.9,254.5,33.7z"/>
	<path d="M301.6,29.3h-3.9v2.1h2.3v1.2h-2.3V36h-1.2v-7.9h5.1V29.3z"/>
	<path d="M309,34.2h-1.1V36h-1.2v-1.7h-4.3v-1.1l4.1-5.1h1.4v5.1h1.1V34.2z M306.8,29.4c-0.1,0.2-0.5,0.6-0.7,0.9l-1.5,1.9
		c-0.2,0.3-0.6,0.7-0.7,0.9h3v-2.3C306.8,30.3,306.8,29.9,306.8,29.4z"/>
	<path d="M382.7,29.3h-3.9v2.1h2.3v1.2h-2.3V36h-1.2v-7.9h5.1V29.3z"/>
	<path d="M389.7,33.3c0,1.9-1.3,2.8-3.1,2.8c-1,0-2-0.2-2.8-0.8l0.6-1c0.7,0.4,1.4,0.6,2.2,0.6c1.2,0,1.9-0.6,1.9-1.6
		s-0.6-1.4-1.6-1.4c-0.5,0-1.1,0.2-1.5,0.5l-1.3-0.5l0.3-3.9h4.9v1.1h-3.8l-0.2,2c0.5-0.3,1.1-0.4,1.7-0.4c1.4-0.1,2.6,1,2.7,2.4
		C389.7,33.1,389.7,33.2,389.7,33.3z"/>
	<path d="M436.7,29.3h-3.9v2.1h2.3v1.2h-2.3V36h-1.2v-7.9h5.1V29.3z"/>
	<path d="M443.9,33.5c0,1.7-1.4,2.6-3.1,2.6s-3-0.9-3-3.2c-0.1-2.6,1.9-4.9,4.5-5c0.1,0,0.3,0,0.4,0V29c-1.7-0.1-3.1,1-3.6,2.6
		c0.6-0.4,1.4-0.6,2.1-0.6c1.3-0.2,2.5,0.8,2.7,2.1C443.9,33.2,443.9,33.4,443.9,33.5z M442.7,33.5c0-1-0.7-1.4-1.8-1.4
		s-1.9,0.5-1.9,1.4s0.6,1.5,1.8,1.5S442.7,34.4,442.7,33.5L442.7,33.5z"/>
	<path d="M491,29.3h-3.9v2.1h2.3v1.2h-2.3V36h-1.2v-7.9h5.1V29.3z"/>
	<path d="M497.2,29.3c-1.6,1.8-2.6,4.2-2.6,6.7h-1.2c0-2.5,0.9-4.9,2.5-6.8h-4.2V28h5.5L497.2,29.3L497.2,29.3z"/>
	<path d="M544.5,29.3h-3.9v2.1h2.3v1.2h-2.3V36h-1.2v-7.9h5.1L544.5,29.3L544.5,29.3z"/>
	<path d="M551.9,33.7c0,1.6-1.2,2.4-3.1,2.4s-3.1-0.9-3.1-2.4c0-0.9,0.5-1.7,1.4-2c-0.6-0.2-1.1-0.8-1.1-1.5c0-1.5,1.2-2.2,2.8-2.2
		c1.4,0,2.8,0.7,2.8,2.2c0,0.7-0.4,1.4-1.1,1.6C551.4,32,552,32.8,551.9,33.7z M550.7,33.7c0-0.8-0.6-1.4-1.9-1.4s-1.9,0.5-1.9,1.3
		s0.7,1.4,1.9,1.4S550.7,34.5,550.7,33.7z M550.4,30.2c0-0.6-0.4-1.2-1.6-1.2s-1.6,0.5-1.6,1.1s0.6,1.1,1.6,1.1
		S550.4,30.8,550.4,30.2z"/>
	<path d="M625.7,29.3h-3.9v2.1h2.3v1.2h-2.3V36h-1.2v-7.9h5.1L625.7,29.3L625.7,29.3z"/>
	<path d="M632.8,31.1c0.1,2.6-1.9,4.9-4.5,5c-0.1,0-0.3,0-0.4,0V35c1.7,0.1,3.1-1,3.6-2.6c-0.6,0.4-1.4,0.6-2.1,0.6
		c-1.4,0.1-2.6-0.9-2.7-2.2c0-0.1,0-0.2,0-0.3c0-1.7,1.4-2.6,3.1-2.6c1.6-0.1,2.9,1.2,3,2.8C632.8,30.8,632.8,31,632.8,31.1z
		 M631.6,30.6c0-0.8-0.6-1.5-1.8-1.5s-1.9,0.6-1.9,1.5s0.7,1.4,1.8,1.4S631.6,31.5,631.6,30.6z"/>
	<path d="M677.7,29.3h-3.9v2.1h2.3v1.2h-2.3V36h-1.2v-7.9h5.1L677.7,29.3L677.7,29.3z"/>
	<path d="M680.9,36h-1.2v-6.1h-1.4v-0.8c0.8-0.1,1.5-0.3,1.6-1h1L680.9,36L680.9,36z"/>
	<path d="M688.9,32c0,2.4-1.1,4.1-3.1,4.1s-3.1-1.7-3.1-4.1s1.1-4.1,3.1-4.1S688.9,29.6,688.9,32z M687.7,32.1
		c0-1.7-0.5-2.9-1.9-2.9s-1.9,1.3-1.9,2.9c0,1.6,0.6,2.9,1.9,2.9S687.7,33.7,687.7,32.1z"/>
	<path d="M733.5,29.3h-3.9v2.1h2.3v1.2h-2.3V36h-1.2v-7.9h5.1L733.5,29.3L733.5,29.3z"/>
	<path d="M736.7,36h-1.2v-6.1h-1.4v-0.8c0.8-0.1,1.5-0.3,1.6-1h1L736.7,36L736.7,36z"/>
	<path d="M740.6,36h-1.2v-6.1H738v-0.8c0.8-0.1,1.5-0.3,1.6-1h1V36z"/>
	<path d="M785.8,29.3h-3.9v2.1h2.3v1.2h-2.3V36h-1.2v-7.9h5.1L785.8,29.3L785.8,29.3z"/>
	<path d="M789.1,36h-1.2v-6.1h-1.4v-0.8c0.8-0.1,1.5-0.3,1.6-1h1L789.1,36L789.1,36z"/>
	<path d="M796.4,36h-5.7c0.1-2.3,1.5-3.4,3-4.3c1.1-0.6,1.3-1,1.3-1.5s-0.4-1-1.5-1c-0.7,0-1.4,0.3-1.9,0.8l-0.8-0.9
		c0.7-0.7,1.7-1.1,2.7-1.1c1.6,0,2.7,0.7,2.7,2.2c0,1.2-0.6,1.7-2,2.6s-2,1.4-2.1,2.2h4.2L796.4,36L796.4,36z"/>
	<path d="M32.5,19.3c1.4,0,2.8,0.5,3.8,1.6c1,1,1.6,2.4,1.6,3.8c0,1.4-0.6,2.8-1.6,3.8c-1,1.1-2.4,1.6-3.8,1.6c-3,0-5.4-2.4-5.4-5.4
		h1c0,2.4,1.9,4.4,4.4,4.4c1.2,0,2.3-0.5,3.1-1.3c1.7-1.7,1.7-4.4,0-6.2c0,0,0,0,0,0c-0.8-0.9-1.9-1.3-3.1-1.3V19.3z M32.9,24.3
		L32.2,25l-3.7-3.7l-1.3,1.3v-3.4h3.4l-1.3,1.3L32.9,24.3z"/>
	<path d="M28.2,44h-5.3v-8H28v1.2h-3.9v2h2.3v1.2h-2.3v2.5h4.1V44z"/>
	<path d="M35,41.7c0,1.4-0.9,2.4-2.9,2.4c-1.1,0-2.1-0.4-2.8-1.3l0.9-0.8c0.5,0.6,1.3,0.9,2.1,0.9c1.1,0,1.6-0.4,1.6-1.2
		c0-0.6-0.5-0.9-1.8-1.3c-1.7-0.5-2.5-0.9-2.5-2.3c0.1-1.3,1.2-2.3,2.4-2.2c0.1,0,0.1,0,0.2,0c1,0,1.9,0.4,2.6,1.1L34,37.9
		c-0.5-0.5-1.1-0.8-1.8-0.8c-0.9,0-1.3,0.5-1.3,1s0.4,0.8,1.7,1.2C33.9,39.7,35,40.3,35,41.7z"/>
	<path d="M42.5,42.6c-0.6,1-1.6,1.5-2.7,1.5c-2.1,0-3.4-1.7-3.4-4.1s1.3-4.1,3.4-4.1c1.1-0.1,2.2,0.5,2.7,1.5l-1.1,0.7
		c-0.3-0.6-0.9-1-1.6-1c-1.4,0-2.1,1.1-2.1,2.9s0.7,2.9,2.1,2.9c0.7,0,1.4-0.4,1.7-1L42.5,42.6z"/>
	<path d="M44.2,141.3l-1.9,2h10v0.9h-10l1.9,2l-0.5,0.5l-3.1-2.9v2.6h-0.9V141h0.9v2.6l3.1-2.9L44.2,141.3z M52.3,146.8v5.4h-0.9
		v-2.6l-3.1,2.9l-0.5-0.5l1.9-2h-10v-0.9h10l-1.9-2l0.5-0.5l3.1,2.9v-2.6L52.3,146.8L52.3,146.8z"/>
	<path d="M41.6,158.9h-2.3v6.8h-1.2v-6.8h-2.3v-1.2h5.8V158.9z"/>
	<path d="M48.6,165.6h-1.3l-0.7-1.9h-3.2l-0.7,1.9h-1.2l2.9-7.9h1.3L48.6,165.6z M46.3,162.7l-0.6-1.8l-0.6-1.8l-0.6,1.8l-0.6,1.8
		H46.3z"/>
	<path d="M56,163.2c0,1.6-1,2.4-2.7,2.4h-3.2v-7.9h3.3c1.4,0,2.3,0.7,2.3,2.1c0,0.7-0.4,1.3-1,1.6C55.5,161.6,56.1,162.4,56,163.2z
		 M54.5,159.8c0-0.6-0.3-1-1.1-1h-2.1v2.1h2.1C54,160.9,54.5,160.4,54.5,159.8C54.5,159.8,54.5,159.8,54.5,159.8z M54.9,163.2
		c0-0.7-0.5-1.3-1.2-1.3c-0.1,0-0.2,0-0.2,0h-2.2v2.6h2.1C54.5,164.5,54.9,164,54.9,163.2z"/>
	<path d="M47.2,200.4l5.6-5.6l5.6,5.6h-2.8v2.1H50v-2.1H47.2z M52.8,196l-3.7,3.7h1.7v2h4v-2h1.7L52.8,196z M50,204.1h5.6v2.8H50
		V204.1z M50.8,204.9v1.2h4v-1.2H50.8z"/>
	<path d="M28.3,218.2c-0.6,1-1.6,1.5-2.7,1.5c-2.1,0-3.4-1.7-3.4-4.1s1.3-4.1,3.4-4.1c1.1-0.1,2.2,0.5,2.7,1.5l-1.1,0.7
		c-0.3-0.6-0.9-1-1.6-1c-1.4,0-2.1,1.1-2.1,2.9s0.7,2.9,2.1,2.9c0.7,0,1.4-0.4,1.7-1L28.3,218.2z"/>
	<path d="M36.3,219.5H35l-0.7-1.9h-3.2l-0.7,1.9h-1.2l2.9-7.9h1.3L36.3,219.5z M34,216.6l-0.6-1.8l-0.6-1.8l-0.6,1.8l-0.6,1.8H34z"
		/>
	<path d="M43.7,214.1c0.1,1.3-0.9,2.4-2.3,2.5c-0.1,0-0.2,0-0.3,0H39v3h-1.2v-7.9h3.3c1.2-0.2,2.4,0.6,2.6,1.8
		C43.7,213.7,43.7,213.9,43.7,214.1z M42.5,214.1c0.1-0.7-0.4-1.3-1.1-1.4c-0.1,0-0.2,0-0.3,0H39v2.7h2.1c0.6,0.1,1.2-0.3,1.4-0.9
		C42.5,214.4,42.5,214.2,42.5,214.1z"/>
	<path d="M50.5,217.3c0,1.4-0.9,2.4-2.9,2.4c-1.1,0-2.1-0.4-2.8-1.3l0.9-0.8c0.5,0.6,1.3,0.9,2.1,0.9c1.1,0,1.6-0.4,1.6-1.2
		c0-0.6-0.5-0.9-1.8-1.3c-1.7-0.5-2.5-0.9-2.5-2.3c0.1-1.3,1.2-2.3,2.4-2.2c0.1,0,0.1,0,0.2,0c1,0,1.9,0.4,2.6,1.1l-0.8,0.8
		c-0.5-0.5-1.1-0.8-1.8-0.8c-0.9,0-1.3,0.5-1.3,1s0.4,0.8,1.7,1.2C49.5,215.4,50.5,215.9,50.5,217.3z"/>
	<path d="M60.5,219.5h-5.1v-7.9h1.2v6.8h4v1.1L60.5,219.5z"/>
	<path d="M68.1,215.6c0,2.5-1.4,4.1-3.4,4.1s-3.4-1.6-3.4-4.1s1.4-4.1,3.4-4.1S68.1,213.1,68.1,215.6z M66.9,215.6
		c0-1.8-0.9-2.9-2.2-2.9s-2.1,1.1-2.1,2.9s0.9,2.9,2.2,2.9S66.9,217.4,66.9,215.6z"/>
	<path d="M75.5,218.2c-0.6,1-1.6,1.5-2.7,1.5c-2.1,0-3.4-1.7-3.4-4.1s1.3-4.1,3.4-4.1c1.1-0.1,2.2,0.5,2.7,1.5l-1.1,0.7
		c-0.3-0.6-0.9-1-1.6-1c-1.4,0-2.1,1.1-2.1,2.9s0.7,2.9,2.1,2.9c0.7,0,1.4-0.4,1.7-1L75.5,218.2z"/>
	<path d="M83.5,219.5h-1.3l-2.3-4.1l-1.5,1.8v2.3h-1.2v-7.9h1.2v4.1c0.1-0.2,0.7-0.9,0.9-1.2l2.3-2.9H83l-2.3,2.9L83.5,219.5z"/>
	<path d="M744.2,209.6l3-3v2.5h7.1v-4.4h-3.5v-1h4.6v6.4h-8.1v2.5L744.2,209.6z"/>
	<path d="M33.3,254.4l5.9-5.9l5.9,5.9h-2.9v5.2h-5.9v-5.2L33.3,254.4z M39.2,249.8l-3.9,3.9h1.8v5.1h4.2v-5.1h1.8L39.2,249.8z"/>
	<path d="M29.6,271.5c0,1.4-0.9,2.4-2.9,2.4c-1.1,0-2.1-0.4-2.8-1.3l0.9-0.8c0.5,0.6,1.3,0.9,2.1,0.9c1.1,0,1.6-0.4,1.6-1.2
		c0-0.6-0.5-0.9-1.8-1.3c-1.7-0.5-2.5-0.9-2.5-2.3c0.1-1.3,1.2-2.3,2.4-2.2c0.1,0,0.1,0,0.2,0c1,0,1.9,0.4,2.6,1.1l-0.8,0.8
		c-0.5-0.5-1.1-0.8-1.8-0.8c-0.9,0-1.3,0.5-1.3,1s0.4,0.8,1.7,1.2C28.6,269.6,29.6,270.1,29.6,271.5z"/>
	<path d="M37.4,273.8h-1.2v-3.5h-3.7v3.5h-1.2v-7.9h1.2v3.2h3.7v-3.2h1.2V273.8z"/>
	<path d="M40.7,273.8h-1.2v-7.9h1.2V273.8z"/>
	<path d="M47.9,267.1H44v2.1h2.3v1.2H44v3.5h-1.2V266h5.1L47.9,267.1z"/>
	<path d="M54.7,267.1h-2.3v6.8h-1.2v-6.8h-2.3v-1.2h5.8V267.1z"/>
	<path d="M707.7,254.4l5.9-5.9l5.9,5.9h-2.9v5.2h-5.9v-5.2L707.7,254.4z M713.5,249.8l-3.9,3.9h1.8v5.1h4.2v-5.1h1.8L713.5,249.8z"
		/>
	<path d="M703.9,271.5c0,1.4-0.9,2.4-2.9,2.4c-1.1,0-2.1-0.4-2.8-1.3l0.8-0.8c0.5,0.6,1.3,0.9,2.1,0.9c1.1,0,1.6-0.4,1.6-1.2
		c0-0.6-0.5-0.9-1.8-1.3c-1.7-0.5-2.5-0.9-2.5-2.3c0.1-1.3,1.2-2.3,2.4-2.2c0.1,0,0.1,0,0.2,0c1,0,1.9,0.4,2.6,1.1l-0.8,0.8
		c-0.5-0.5-1.1-0.8-1.8-0.8c-0.9,0-1.3,0.5-1.3,1s0.4,0.8,1.7,1.2C702.9,269.6,703.9,270.1,703.9,271.5z"/>
	<path d="M711.7,273.8h-1.2v-3.5h-3.7v3.5h-1.2v-7.9h1.2v3.2h3.7v-3.2h1.2V273.8z"/>
	<path d="M715,273.8h-1.2v-7.9h1.2V273.8z"/>
	<path d="M722.2,267.1h-3.9v2.1h2.3v1.2h-2.3v3.5h-1.2V266h5.1L722.2,267.1L722.2,267.1z"/>
	<path d="M729,267.1h-2.3v6.8h-1.2v-6.8h-2.3v-1.2h5.8V267.1z"/>
	<path d="M19.7,325c-0.6,1-1.6,1.5-2.7,1.5c-2.1,0-3.4-1.7-3.4-4.1s1.3-4.1,3.4-4.1c1.1-0.1,2.2,0.5,2.7,1.5l-1.1,0.7
		c-0.3-0.6-0.9-1-1.6-1c-1.4,0-2.1,1.1-2.1,2.9s0.7,2.9,2.1,2.9c0.7,0,1.4-0.4,1.7-1L19.7,325z"/>
	<path d="M27.5,322.5c0,2.5-1.4,4.1-3.4,4.1s-3.4-1.6-3.4-4.1s1.4-4.1,3.4-4.1S27.5,320,27.5,322.5z M26.3,322.5
		c0-1.8-0.9-2.9-2.2-2.9s-2.1,1.1-2.1,2.9s0.9,2.9,2.2,2.9S26.3,324.3,26.3,322.5z"/>
	<path d="M35.2,326.4h-1.1l-3.2-5c-0.2-0.3-0.5-0.8-0.6-1v5.9h-1.2v-7.9h1.2l3,4.8c0.2,0.4,0.4,0.7,0.7,1.1v-6h1.2L35.2,326.4z"/>
	<path d="M42.6,319.7h-2.3v6.8h-1.2v-6.8h-2.3v-1.2h5.8V319.7z"/>
	<path d="M50.2,320.9c0.1,1.1-0.6,2.1-1.7,2.3l1.6,3.2h-1.4l-1.6-3.1h-1.8v3.1h-1.2v-7.9h3.5c1.3-0.2,2.4,0.7,2.6,2
		C50.2,320.6,50.2,320.8,50.2,320.9z M49,320.9c0.1-0.7-0.4-1.2-1.1-1.3c-0.1,0-0.1,0-0.2,0h-2.3v2.6h2.3c0.7,0.1,1.2-0.4,1.3-1.1
		C49,321,49,321,49,320.9z"/>
	<path d="M58.2,322.5c0,2.5-1.4,4.1-3.4,4.1s-3.4-1.6-3.4-4.1s1.4-4.1,3.4-4.1S58.2,320,58.2,322.5z M57,322.5
		c0-1.8-0.9-2.9-2.2-2.9s-2.1,1.1-2.1,2.9s0.9,2.9,2.2,2.9S57,324.3,57,322.5z"/>
	<path d="M65,326.4h-5.1v-7.9h1.2v6.8h4v1.1H65z"/>
	<path d="M111,302.8v8.8h-8.7v-8.8H111z M106.2,306.8v-3.2H103v3.2H106.2z M106.2,307.6H103v3.2h3.2V307.6z M107,306.8h3.3v-3.3H107
		V306.8z M107,307.6v3.2h3.3v-3.2H107z"/>
	<path d="M105.3,318.5l-1.6,7.9h-1.2l-1.2-5.1c-0.1-0.4-0.2-0.7-0.2-1.1c0,0.2-0.2,0.8-0.2,1.1l-1.3,5.1h-1.2l-1.6-7.9H98l1,5
		c0,0.3,0.1,0.7,0.2,1c0-0.3,0.2-0.8,0.2-1l1.3-5h1l1.3,5.1c0.1,0.2,0.1,0.6,0.2,0.9c0.1-0.3,0.1-0.7,0.2-0.9l1-5.1H105.3z"/>
	<path d="M108.2,326.4H107v-7.9h1.2V326.4z"/>
	<path d="M116.3,326.4h-1.1l-3.2-5c-0.2-0.3-0.5-0.8-0.6-1v5.9h-1.2v-7.9h1.2l3,4.8c0.2,0.4,0.4,0.7,0.7,1.1v-6h1.2V326.4z"/>
	<path d="M180.1,302v1H177l-4.6,9.2h-4v-1h3.2l4.6-9.2H180.1z M175.4,312.3v-1h4.8v1H175.4z"/>
	<path d="M171.6,326.4h-1.3l-0.7-1.9h-3.2l-0.7,1.9h-1.2l2.9-7.9h1.3L171.6,326.4z M169.3,323.5l-0.6-1.8l-0.6-1.8l-0.6,1.8
		l-0.6,1.8H169.3z"/>
	<path d="M178.4,326.4h-5.1v-7.9h1.2v6.8h4L178.4,326.4L178.4,326.4z"/>
	<path d="M183.9,319.7h-2.3v6.8h-1.2v-6.8H178v-1.2h5.8L183.9,319.7L183.9,319.7z"/>
	<path d="M374.8,309.2v-2h0.7v1.4h2.6v-1.4h0.7v2H374.8z"/>
	<path d="M365.1,324.2c0,1.4-0.9,2.4-2.9,2.4c-1.1,0-2.1-0.4-2.8-1.3l0.9-0.8c0.5,0.6,1.3,0.9,2.1,0.9c1.1,0,1.6-0.4,1.6-1.2
		c0-0.6-0.5-0.9-1.8-1.3c-1.7-0.5-2.5-0.9-2.5-2.3c0.1-1.3,1.2-2.3,2.4-2.2c0.1,0,0.1,0,0.2,0c1,0,1.9,0.4,2.6,1.1l-0.8,0.8
		c-0.5-0.5-1.1-0.8-1.8-0.8c-0.9,0-1.3,0.5-1.3,1s0.4,0.8,1.7,1.2C364.2,322.2,365.1,322.7,365.1,324.2z"/>
	<path d="M372.8,321c0.1,1.3-0.9,2.4-2.3,2.5c-0.1,0-0.2,0-0.3,0h-2.1v3h-1.2v-7.9h3.3c1.2-0.2,2.4,0.6,2.6,1.8
		C372.8,320.6,372.8,320.8,372.8,321z M371.6,321c0.1-0.7-0.4-1.3-1.1-1.4c-0.1,0-0.2,0-0.3,0h-2.1v2.7h2.1c0.6,0.1,1.3-0.3,1.4-1
		C371.6,321.2,371.6,321.1,371.6,321L371.6,321z"/>
	<path d="M380,326.4h-1.3l-0.7-1.9h-3.2l-0.7,1.9H373l2.9-7.9h1.3L380,326.4z M377.7,323.5l-0.6-1.8l-0.6-1.8l-0.6,1.8l-0.6,1.8
		H377.7z"/>
	<path d="M387.1,325c-0.6,1-1.6,1.5-2.7,1.5c-2.1,0-3.4-1.7-3.4-4.1s1.3-4.1,3.4-4.1c1.1-0.1,2.2,0.5,2.7,1.5l-1.1,0.7
		c-0.3-0.6-0.9-1-1.6-1c-1.4,0-2.1,1.1-2.1,2.9s0.7,2.9,2.1,2.9c0.7,0,1.4-0.4,1.7-1L387.1,325z"/>
	<path d="M394.1,326.4h-5.3v-7.9h5.1v1.2H390v2h2.3v1.2H390v2.5h4.1V326.4z"/>
	<path d="M651.1,302.8v8.8h-8.7v-8.8H651.1z M646.3,306.8v-3.2h-3.2v3.2H646.3z M646.3,307.6h-3.2v3.2h3.2V307.6z M647.1,306.8h3.3
		v-3.3h-3.3V306.8z M647.1,307.6v3.2h3.3v-3.2H647.1z"/>
	<path d="M645.3,318.5l-1.6,7.9h-1.2l-1.2-5.1c-0.1-0.4-0.2-0.7-0.2-1.1c0,0.2-0.2,0.8-0.2,1.1l-1.3,5.1h-1.2l-1.6-7.9h1.2l1,5
		c0,0.3,0.1,0.7,0.2,1c0-0.3,0.2-0.8,0.2-1l1.3-5h1l1.3,5.1c0.1,0.2,0.1,0.6,0.2,0.9c0.1-0.3,0.1-0.7,0.2-0.9l1-5.1H645.3z"/>
	<path d="M648.2,326.4H647v-7.9h1.2V326.4z"/>
	<path d="M656.3,326.4h-1.1l-3.2-5c-0.2-0.3-0.5-0.8-0.6-1v5.9h-1.2v-7.9h1.2l3,4.8c0.2,0.4,0.4,0.7,0.7,1.1v-6h1.2L656.3,326.4
		L656.3,326.4z"/>
	<path d="M710.6,303.4h7.3v1.2h-7.3V303.4z M710.6,305.9h7.3v1.2h-7.3V305.9z M710.6,308.4h7.3v1.2h-7.3V308.4z M710.6,310.9h7.3
		v1.2h-7.3V310.9z"/>
	<path d="M706.3,326.3h-1.2v-5.6c-0.1,0.2-0.3,0.8-0.5,1.2l-1.9,4.5l-1.9-4.5c-0.2-0.5-0.4-1-0.5-1.2v5.6h-1.1v-7.9h1.2l1.8,4.2
		c0.2,0.5,0.4,0.9,0.5,1.4c0.1-0.3,0.3-0.9,0.5-1.4l1.7-4.2h1.3v7.9H706.3z"/>
	<path d="M713.6,326.3h-5.3v-7.9h5.1v1.2h-3.9v2h2.3v1.2h-2.3v2.5h4.1L713.6,326.3L713.6,326.3z"/>
	<path d="M721.3,326.3h-1.1l-3.2-5c-0.2-0.3-0.5-0.8-0.6-1v5.9h-1.2v-7.9h1.2l3,4.8c0.2,0.4,0.4,0.7,0.7,1.1v-6h1.2L721.3,326.3
		L721.3,326.3z"/>
	<path d="M729.4,323c0,2.2-1.1,3.4-3,3.4s-3-1.3-3-3.5v-4.6h1.2v4.6c0,1.5,0.6,2.3,1.8,2.3s1.8-0.8,1.8-2.2v-4.6h1.2V323z"/>
	<path d="M781.2,313.6v-1.4c-1.4-0.2-2.7-0.9-3.6-2.1l-1.2,0.7l-0.5-0.9l1.2-0.7c-0.5-1.3-0.5-2.9,0-4.2l-1.2-0.7l0.5-0.9l1.2,0.7
		c0.9-1.2,2.2-1.9,3.6-2.1v-1.4h1v1.4c1.4,0.2,2.7,0.9,3.6,2.1l1.2-0.7l0.5,0.9l-1.2,0.7c0.7,1.3,0.7,2.9,0,4.2l1.2,0.7l-0.5,0.9
		l-1.2-0.7c-0.9,1.2-2.2,1.9-3.6,2.1v1.4H781.2z M778,305.6L778,305.6c-0.2,0.5-0.3,1.1-0.3,1.6c0,0.5,0.1,1.1,0.3,1.6l0,0l2.8-1.6
		L778,305.6z M781.2,303.1L781.2,303.1c-1.1,0.1-2.1,0.7-2.7,1.6l0,0l2.8,1.6L781.2,303.1L781.2,303.1z M778.5,309.6L778.5,309.6
		c0.7,0.9,1.6,1.4,2.7,1.6l0,0V308L778.5,309.6z M785,304.7L785,304.7c-0.7-0.9-1.6-1.4-2.7-1.6l0,0v3.2L785,304.7z M782.3,311.2
		L782.3,311.2c1.1-0.1,2.1-0.7,2.7-1.6l0,0l-2.8-1.6L782.3,311.2L782.3,311.2z M785.5,308.7L785.5,308.7c0.2-0.5,0.3-1.1,0.3-1.6
		c0-0.5-0.1-1.1-0.3-1.6l0,0l-2.8,1.6L785.5,308.7z"/>
	<path d="M38.7,313.6v-1.4c-1.4-0.2-2.7-0.9-3.6-2.1l-1.2,0.7l-0.5-0.9l1.2-0.7c-0.5-1.3-0.5-2.9,0-4.2l-1.2-0.7l0.5-0.9l1.2,0.7
		c0.9-1.2,2.2-1.9,3.6-2.1v-1.4h1v1.4c1.4,0.2,2.7,0.9,3.6,2.1l1.2-0.7l0.5,0.9l-1.2,0.7c0.7,1.3,0.7,2.9,0,4.2l1.2,0.7l-0.5,0.9
		l-1.2-0.7c-0.9,1.2-2.2,1.9-3.6,2.1v1.4H38.7z M35.5,305.6L35.5,305.6c-0.2,0.5-0.3,1.1-0.3,1.6c0,0.5,0.1,1.1,0.3,1.6l0,0l2.8-1.6
		L35.5,305.6z M38.7,303.1L38.7,303.1c-1.1,0.1-2.1,0.7-2.7,1.6l0,0l2.8,1.6L38.7,303.1L38.7,303.1z M36,309.6L36,309.6
		c0.7,0.9,1.6,1.4,2.7,1.6l0,0V308L36,309.6z M42.5,304.7L42.5,304.7c-0.7-0.9-1.6-1.4-2.7-1.6l0,0v3.2L42.5,304.7z M39.8,311.2
		L39.8,311.2c1.1-0.1,2.1-0.7,2.7-1.6l0,0l-2.8-1.6L39.8,311.2L39.8,311.2z M43,308.7L43,308.7c0.2-0.5,0.3-1.1,0.3-1.6
		c0-0.5-0.1-1.1-0.3-1.6l0,0l-2.8,1.6L43,308.7z"/>
	<path d="M762.2,325c-0.6,1-1.6,1.5-2.7,1.5c-2.1,0-3.4-1.7-3.4-4.1s1.3-4.1,3.4-4.1c1.1-0.1,2.2,0.5,2.7,1.5l-1.1,0.7
		c-0.3-0.6-0.9-1-1.6-1c-1.4,0-2.1,1.1-2.1,2.9s0.7,2.9,2.1,2.9c0.7,0,1.4-0.4,1.7-1L762.2,325z"/>
	<path d="M770,322.5c0,2.5-1.4,4.1-3.4,4.1s-3.4-1.6-3.4-4.1s1.4-4.1,3.4-4.1S770,320,770,322.5z M768.8,322.5
		c0-1.8-0.9-2.9-2.2-2.9s-2.1,1.1-2.1,2.9s0.9,2.9,2.2,2.9S768.8,324.3,768.8,322.5z"/>
	<path d="M777.7,326.4h-1.1l-3.2-5c-0.2-0.3-0.5-0.8-0.6-1v5.9h-1.2v-7.9h1.2l3,4.8c0.2,0.4,0.4,0.7,0.7,1.1v-6h1.2L777.7,326.4
		L777.7,326.4z"/>
	<path d="M785.1,319.7h-2.3v6.8h-1.2v-6.8h-2.3v-1.2h5.8V319.7z"/>
	<path d="M792.7,320.9c0.1,1.1-0.6,2.1-1.7,2.3l1.6,3.2h-1.4l-1.6-3.1h-1.8v3.1h-1.2v-7.9h3.5c1.3-0.2,2.4,0.7,2.6,2
		C792.7,320.6,792.7,320.8,792.7,320.9z M791.5,320.9c0.1-0.7-0.4-1.2-1.1-1.3c-0.1,0-0.1,0-0.2,0h-2.3v2.6h2.3
		c0.7,0.1,1.2-0.4,1.3-1.1C791.5,321,791.5,321,791.5,320.9z"/>
	<path d="M800.7,322.5c0,2.5-1.4,4.1-3.4,4.1s-3.4-1.6-3.4-4.1s1.4-4.1,3.4-4.1S800.7,320,800.7,322.5z M799.5,322.5
		c0-1.8-0.9-2.9-2.2-2.9s-2.1,1.1-2.1,2.9s0.9,2.9,2.2,2.9S799.5,324.3,799.5,322.5z"/>
	<path d="M807.5,326.4h-5.1v-7.9h1.2v6.8h4v1.1H807.5z"/>
	<path d="M577.3,306.2h-2.2l4.1-4.1l4.1,4.1h-2.2l2.2,2.2h-2.2v3.9h-3.8v-3.9h-2.2L577.3,306.2z M580.3,305.3h1.1l-2.2-2.1l-2.1,2.1
		h1.1l1-1L580.3,305.3z M580.4,307.5h1l-2.2-2.1l-2.1,2.1h1v4h2.3V307.5z"/>
	<path d="M567.5,326.4h-1.3l-0.7-1.9h-3.2l-0.7,1.9h-1.2l2.9-7.9h1.3L567.5,326.4z M565.2,323.5l-0.6-1.8l-0.6-1.8l-0.6,1.8
		l-0.6,1.8H565.2z"/>
	<path d="M574.2,326.4H569v-7.9h1.2v6.8h4V326.4z"/>
	<path d="M579.7,319.7h-2.3v6.8h-1.2v-6.8h-2.3v-1.2h5.8V319.7z"/>
	<path d="M590.3,323.3c0.2,1.6-1,3-2.6,3.2c-0.1,0-0.3,0-0.4,0c-2.1,0-3.4-1.7-3.4-4.1s1.3-4.1,3.4-4.1c1.1-0.1,2.2,0.5,2.7,1.5
		l-1,0.6c-0.3-0.6-1-1-1.7-0.9c-1.4,0-2.1,1.1-2.1,2.9s0.8,2.9,2.1,2.9c0.9,0.1,1.7-0.6,1.8-1.5c0-0.1,0-0.2,0-0.3h-1.3v-1.1h2.5
		V323.3z"/>
	<path d="M598,320.9c0.1,1.1-0.6,2.1-1.7,2.3l1.6,3.2h-1.4l-1.6-3.1h-1.8v3.1H592v-7.9h3.5c1.2-0.2,2.3,0.7,2.5,1.9
		C598,320.6,598,320.7,598,320.9z M596.8,320.9c0.1-0.7-0.4-1.2-1.1-1.3c-0.1,0-0.1,0-0.2,0h-2.3v2.6h2.3c0.6,0.1,1.2-0.4,1.3-1
		C596.8,321.1,596.8,321,596.8,320.9z"/>
	<path d="M708.9,213.6V205h6.4v1.4h-4.6v1.9h4.3v1.4h-4.3v2.3h4.8v1.4H708.9z"/>
	<path d="M722.6,213.6h-1.7v-3.2c0-0.4,0-0.9-0.1-1.3c-0.1-0.2-0.2-0.3-0.3-0.5c-0.2-0.1-0.4-0.2-0.6-0.2c-0.3,0-0.5,0.1-0.8,0.2
		c-0.2,0.1-0.4,0.4-0.5,0.6c-0.1,0.5-0.1,0.9-0.1,1.4v2.8h-1.6v-6.2h1.5v0.9c0.7-0.9,1.9-1.3,3-0.9c0.3,0.1,0.5,0.3,0.7,0.5
		c0.2,0.2,0.3,0.4,0.3,0.7c0.1,0.4,0.1,0.7,0.1,1.1L722.6,213.6z"/>
	<path d="M727.1,207.4v1.3H726v2.5c0,0.3,0,0.6,0,0.9c0,0.1,0.1,0.2,0.2,0.2c0.1,0.1,0.2,0.1,0.3,0.1c0.2,0,0.5-0.1,0.7-0.2l0.1,1.3
		c-0.4,0.2-0.9,0.2-1.3,0.2c-0.3,0-0.6,0-0.8-0.1c-0.2-0.1-0.4-0.2-0.5-0.4c-0.1-0.2-0.2-0.4-0.2-0.6c-0.1-0.4-0.1-0.8-0.1-1.2v-2.7
		h-0.8v-1.3h0.8v-1.2l1.7-1v2.2L727.1,207.4z"/>
	<path d="M731.9,211.6l1.6,0.3c-0.2,0.6-0.5,1-1,1.4c-0.5,0.3-1.1,0.5-1.7,0.5c-0.9,0.1-1.8-0.3-2.4-1.1c-0.4-0.6-0.6-1.4-0.6-2.1
		c-0.1-0.9,0.2-1.8,0.8-2.4c0.5-0.6,1.2-0.9,2-0.9c0.8,0,1.6,0.3,2.2,0.9c0.6,0.8,0.9,1.8,0.8,2.8h-4.1c0,0.4,0.1,0.8,0.4,1.1
		c0.2,0.3,0.6,0.4,1,0.4c0.2,0,0.5-0.1,0.7-0.2C731.6,212.1,731.8,211.9,731.9,211.6z M732,210c0-0.4-0.1-0.8-0.4-1.1
		c-0.2-0.2-0.5-0.4-0.8-0.4c-0.3,0-0.7,0.1-0.9,0.4c-0.2,0.3-0.4,0.7-0.3,1.1L732,210z"/>
	<path d="M736.5,213.6h-1.6v-6.2h1.5v0.9c0.2-0.3,0.4-0.6,0.7-0.8c0.2-0.1,0.5-0.2,0.7-0.2c0.4,0,0.8,0.1,1.1,0.3l-0.5,1.4
		c-0.2-0.2-0.5-0.3-0.8-0.3c-0.2,0-0.4,0.1-0.6,0.2c-0.2,0.2-0.3,0.4-0.4,0.7c-0.1,0.7-0.2,1.4-0.1,2.1L736.5,213.6z"/>
	<g id="text7836-1">
		<g>
			<path class="st4" d="M48.2,116.7H47c-0.6-1-1.1-2-1.5-3.1c-0.3-1-0.5-2-0.5-3.1c0-1.2,0.2-2.4,0.6-3.5c0.3-0.9,0.8-1.8,1.4-2.7
				h1.2c-0.5,1.1-0.9,2.2-1.2,3.3c-0.4,1.6-0.4,3.3-0.1,5c0.1,0.7,0.3,1.4,0.5,2.1C47.6,115.3,47.9,115.9,48.2,116.7z"/>
		</g>
	</g>
	<g id="text7894-1">
		<g>
			<path class="st4" d="M44.8,98.7c0.3-0.8,0.6-1.3,0.8-1.8c0.2-0.5,0.3-0.9,0.4-1.4c0.1-0.5,0.2-1,0.3-1.5c0.1-0.5,0.1-1,0.1-1.5
				c0-1-0.1-1.9-0.3-2.9c-0.3-1.1-0.7-2.2-1.2-3.3H46c0.6,0.9,1.1,1.9,1.5,2.9c0.3,1,0.5,2.1,0.5,3.1c0,1-0.2,1.9-0.4,2.9
				c-0.3,1.2-0.9,2.4-1.6,3.4H44.8z"/>
		</g>
	</g>
	<path d="M797.2,101.1h-13.5l0.4,1.1c0.1,0.2,0,0.3-0.2,0.4s-0.2,0.1-0.4,0l-3.7-2.4l3.7-2.4c0.1-0.1,0.3-0.1,0.4-0.1
		c0.2,0.1,0.2,0.2,0.2,0.4l-0.4,1.2h13.5V101.1z"/>
</g>
<path d="M73.7,92.8h-1.2v-7.3c-0.3,0.3-0.7,0.6-1.1,0.8c-0.4,0.2-0.8,0.4-1.2,0.6v-1.1c0.6-0.3,1.2-0.7,1.7-1.1
	c0.4-0.4,0.7-0.8,1-1.2h0.7L73.7,92.8z"/>
<path class="st4" d="M99.7,90.3l-0.5-4.8v-2.2h2v2.2l-0.5,4.8L99.7,90.3z M99.3,92.8V91h1.8v1.8L99.3,92.8z"/>
<path class="st4" d="M98.2,102.4l-0.3-1.8v-1.6h2v1.6l-0.3,1.8H98.2z M101.1,102.4l-0.3-1.8v-1.6h2v1.6l-0.3,1.8H101.1z"/>
<path d="M345.5,85.7l-1.1,0.1c-0.1-0.4-0.2-0.7-0.4-1c-0.3-0.3-0.7-0.5-1.1-0.5c-0.4,0-0.7,0.1-1,0.3c-0.4,0.3-0.7,0.7-0.9,1.2
	c-0.2,0.7-0.4,1.4-0.3,2.2c0.2-0.4,0.6-0.7,1-0.9c0.4-0.2,0.8-0.3,1.3-0.3c0.8,0,1.5,0.3,2,0.8c0.6,0.6,0.8,1.4,0.8,2.2
	c0,0.6-0.1,1.1-0.4,1.6c-0.2,0.5-0.6,0.9-1,1.2c-0.5,0.3-1,0.4-1.5,0.4c-0.9,0-1.8-0.4-2.4-1.1c-0.7-1-1-2.3-0.9-3.5
	c-0.1-1.4,0.2-2.8,1-4c0.6-0.7,1.4-1.1,2.4-1.1C344.2,83.2,345.4,84.2,345.5,85.7L345.5,85.7z M340.8,89.7c0,0.4,0.1,0.8,0.2,1.1
	c0.1,0.3,0.4,0.6,0.7,0.8c0.3,0.2,0.6,0.3,1,0.3c0.5,0,1-0.2,1.3-0.6c0.4-0.4,0.6-1,0.5-1.6c0-0.6-0.2-1.1-0.5-1.5
	c-0.3-0.4-0.8-0.6-1.3-0.6c-0.5,0-1,0.2-1.3,0.6C341,88.6,340.8,89.2,340.8,89.7z"/>
<path class="st4" d="M369.5,91h1.8v1.3c0,0.4,0,0.8-0.1,1.2c-0.1,0.3-0.3,0.6-0.5,0.8c-0.3,0.3-0.6,0.5-1,0.6l-0.4-0.8
	c0.6-0.1,1-0.7,1-1.3h-0.9L369.5,91z M369.5,87.8V86h1.8v1.8H369.5z"/>
<path class="st4" d="M369.5,106.7h1.8v1.3c0,0.4,0,0.8-0.1,1.2c-0.1,0.3-0.3,0.6-0.5,0.8c-0.3,0.3-0.6,0.5-1,0.6l-0.4-0.8
	c0.3-0.1,0.6-0.3,0.8-0.5c0.2-0.3,0.2-0.6,0.2-0.9h-0.9L369.5,106.7z"/>
<path d="M392.6,84.6v-1.1h6.1v0.9c-0.7,0.8-1.3,1.6-1.8,2.5c-0.6,1-1,2.1-1.4,3.3c-0.2,0.8-0.4,1.7-0.4,2.6h-1.2
	c0-0.9,0.2-1.8,0.4-2.7c0.3-1,0.7-2.1,1.2-3c0.5-0.9,1-1.7,1.7-2.5L392.6,84.6z"/>
<path class="st4" d="M422.5,87.7v-1.8h1.8v1.8H422.5z M422.5,92.7V91h1.8v1.8L422.5,92.7z"/>
<path class="st4" d="M422.5,108.5v-1.8h1.8v1.8H422.5z"/>
<path class="st4" d="M600.7,251.9h-1.6v-0.4c0-0.5,0.1-0.9,0.3-1.3c0.3-0.4,0.6-0.8,1-1.1c0.3-0.3,0.7-0.5,0.9-0.8
	c0.2-0.2,0.2-0.4,0.2-0.7c0-0.3-0.2-0.7-0.4-0.9c-0.3-0.3-0.7-0.4-1.1-0.4c-0.4,0-0.8,0.1-1.2,0.4c-0.3,0.3-0.6,0.7-0.6,1.2
	l-1.7-0.2c0-0.8,0.4-1.5,1-1.9c0.7-0.6,1.5-0.8,2.4-0.8c0.9,0,1.8,0.2,2.5,0.8c0.6,0.5,0.9,1.2,0.9,1.9c0,0.4-0.1,0.8-0.3,1.1
	c-0.4,0.6-0.9,1-1.4,1.4c-0.3,0.2-0.5,0.5-0.7,0.8C600.7,251.2,600.7,251.5,600.7,251.9z M599.1,254.3v-1.8h1.8v1.8H599.1z"/>
<path class="st4" d="M593,269h1.9l3.7,6.2V269h1.8v9.4h-1.9l-3.6-6v6H593V269z M601,273.3c0-0.7,0.2-1.4,0.7-1.9
	c0.5-0.5,1.1-0.7,1.8-0.7c0.7,0,1.4,0.3,1.8,0.8c0.5,0.5,0.7,1.2,0.7,1.9c0,0.4-0.1,0.9-0.3,1.3c-0.2,0.4-0.5,0.7-0.8,0.9
	c-0.4,0.3-0.9,0.4-1.4,0.4c-0.7,0-1.4-0.2-1.9-0.8C601.2,274.7,600.9,274,601,273.3L601,273.3z M601.2,276.6h4.6v1.4h-4.6V276.6z
	 M602.7,273.5c0,0.3,0,0.6,0.2,0.9c0.2,0.3,0.7,0.4,1,0.2c0.1-0.1,0.2-0.1,0.2-0.2c0.2-0.4,0.2-0.7,0.2-1.1c0-0.3,0-0.6-0.2-0.9
	c-0.1-0.2-0.3-0.3-0.6-0.3c-0.3,0-0.5,0.1-0.7,0.4C602.8,272.7,602.7,273.1,602.7,273.5L602.7,273.5z"/>
<path d="M177.7,90.3l1.1-0.2c0.1,0.5,0.3,1,0.7,1.4c0.3,0.3,0.7,0.4,1.2,0.4c0.5,0,1-0.2,1.4-0.6c0.4-0.4,0.6-0.9,0.6-1.4
	c0-0.5-0.2-1-0.5-1.3c-0.4-0.3-0.8-0.5-1.3-0.5c-0.3,0-0.5,0.1-0.8,0.1l0.1-1h0.2c0.5,0,0.9-0.1,1.3-0.4c0.4-0.3,0.6-0.7,0.6-1.2
	c0-0.4-0.2-0.7-0.4-1c-0.6-0.6-1.6-0.6-2.2,0c-0.3,0.3-0.5,0.8-0.6,1.3l-1.1-0.2c0.1-0.7,0.5-1.3,1-1.8c0.5-0.4,1.2-0.7,1.9-0.6
	c0.5,0,1,0.1,1.4,0.3c0.4,0.2,0.8,0.5,1,0.9c0.2,0.4,0.3,0.8,0.3,1.2c0,0.4-0.1,0.8-0.3,1.1c-0.3,0.4-0.6,0.6-1,0.8
	c0.5,0.1,1,0.4,1.3,0.8c0.3,0.4,0.5,1,0.5,1.5c0,0.8-0.3,1.6-0.9,2.1c-0.6,0.6-1.4,0.9-2.3,0.9c-0.8,0-1.5-0.2-2.1-0.7
	C178,91.7,177.7,91,177.7,90.3z"/>
<path class="st4" d="M207.6,116.7v-9.4h1.9v9.4H207.6z"/>
<path d="M128.7,91.4v1.1h-6.2c0-0.3,0-0.5,0.1-0.8c0.2-0.5,0.4-0.9,0.8-1.2c0.5-0.5,1-1,1.5-1.5c0.8-0.6,1.5-1.3,2.1-2
	c0.3-0.4,0.5-0.9,0.5-1.4c0-0.4-0.2-0.9-0.5-1.2c-0.3-0.3-0.8-0.5-1.3-0.5c-0.5,0-1,0.2-1.3,0.5c-0.4,0.4-0.5,0.9-0.5,1.4l-1.2-0.1
	c0-0.8,0.4-1.5,0.9-2c0.6-0.5,1.4-0.7,2.1-0.7c0.8,0,1.6,0.2,2.2,0.8c0.5,0.5,0.8,1.2,0.8,1.9c0,0.4-0.1,0.8-0.2,1.1
	c-0.2,0.4-0.4,0.8-0.8,1.1c-0.6,0.6-1.1,1.1-1.8,1.7c-0.7,0.6-1.1,1-1.3,1.2c-0.2,0.2-0.3,0.4-0.5,0.6H128.7z"/>
<path class="st4" d="M157.7,111.8c0.2,1.7-0.6,3.3-2,4.2c-0.7,0.4-1.5,0.6-2.2,0.6c-0.9,0-1.7-0.2-2.4-0.8c-1.2-1-1.8-2.5-1.8-4
	c0-0.2,0-0.5,0.1-0.8h6.4c0-0.6-0.3-1.2-0.7-1.7c-0.4-0.5-1-0.8-1.6-0.7c-1,0-1.8,0.6-2,1.5l-1.9-0.4c0.2-0.8,0.7-1.6,1.4-2.1
	c0.7-0.5,1.6-0.7,2.4-0.7c1.3-0.1,2.5,0.5,3.3,1.4C157.4,109.4,157.8,110.6,157.7,111.8z M155.7,112.6h-4.4c0,0.7,0.3,1.3,0.8,1.8
	c0.4,0.4,0.9,0.6,1.4,0.6c0.6,0,1.1-0.2,1.5-0.6C155.4,113.9,155.7,113.3,155.7,112.6L155.7,112.6z"/>
<path d="M102.6,144.7c0.5,0.4,1,0.6,1.6,0.9l-0.4,0.9c-0.7-0.3-1.4-0.7-2-1.2c-0.7,0.4-1.5,0.6-2.3,0.6c-0.8,0-1.6-0.2-2.3-0.6
	c-0.7-0.4-1.2-1-1.6-1.7c-0.4-0.8-0.6-1.6-0.6-2.5c0-0.9,0.2-1.7,0.6-2.5c0.3-0.7,0.9-1.3,1.6-1.7c1.5-0.8,3.2-0.8,4.7,0
	c0.7,0.4,1.2,1,1.6,1.7c0.4,0.8,0.6,1.6,0.6,2.5c0,0.7-0.1,1.4-0.3,2.1C103.5,143.7,103.1,144.3,102.6,144.7z M99.9,143.1
	c0.6,0.2,1.3,0.5,1.8,0.9c0.8-0.8,1.2-1.9,1.1-3c0-0.7-0.1-1.4-0.4-2c-0.2-0.5-0.6-1-1.1-1.3c-0.5-0.3-1.1-0.5-1.7-0.5
	c-0.9,0-1.7,0.3-2.3,0.9c-1.2,1.7-1.2,4,0,5.7c0.6,0.7,1.4,1,2.3,1c0.4,0,0.9-0.1,1.3-0.2c-0.4-0.3-0.8-0.5-1.2-0.6L99.9,143.1z"/>
<path class="st4" d="M123.7,160.3h1.8v6.3l3.8-6.3h1.9v9.4h-1.8v-6.1l-3.8,6.1h-1.9L123.7,160.3z M128.5,157.9h0.9
	c0,0.5-0.2,1-0.6,1.4c-0.8,0.7-2,0.7-2.8,0c-0.4-0.4-0.6-0.9-0.6-1.4h0.9c0,0.3,0.1,0.5,0.3,0.7c0.5,0.3,1.1,0.3,1.6,0
	C128.4,158.5,128.5,158.2,128.5,157.9L128.5,157.9z"/>
<path d="M109.1,199.5l3.6-9.4h1.3l3.8,9.4h-1.4l-1.1-2.8h-3.9l-1,2.8H109.1z M111.8,195.7h3.2l-1-2.6c-0.3-0.8-0.5-1.4-0.7-1.9
	c-0.1,0.6-0.3,1.2-0.5,1.8L111.8,195.7z"/>
<path class="st4" d="M141.8,222.4v1.1H140v-1.1c-1.2,0.1-2.3-0.3-3.2-1.1c-0.6-0.7-1-1.6-0.9-2.6c0-1,0.3-1.9,1-2.6
	c0.9-0.7,2-1.1,3.1-1.1v-0.9h1.9v0.9c1.2-0.1,2.3,0.3,3.2,1.1c1.3,1.5,1.3,3.7,0,5.1C144.1,222.1,143,222.5,141.8,222.4z M140,220.8
	v-4.2c-0.6-0.1-1.2,0.1-1.7,0.5c-0.4,0.4-0.6,1-0.5,1.6C137.7,220.1,138.5,220.8,140,220.8z M141.9,220.8c0.4,0,0.9-0.1,1.3-0.2
	c0.3-0.1,0.6-0.4,0.8-0.7c0.2-0.4,0.3-0.8,0.2-1.2c0-1.4-0.8-2-2.3-2L141.9,220.8z"/>
<path d="M82.4,254v-1.1l4.8-6c0.3-0.4,0.6-0.8,1-1.1h-5.3v-1.1h6.7v1.1l-5.3,6.5l-0.6,0.7h6v1.1H82.4z"/>
<path class="st4" d="M115.8,278v-3.9h-0.4c-0.4,0-0.9,0.1-1.3,0.3c-0.5,0.5-0.9,1-1.3,1.6l-1.4,2.1h-2.3l1.2-1.8
	c0.3-0.5,0.7-1,1.1-1.5c0.3-0.3,0.6-0.6,1-0.8c-0.7-0.1-1.4-0.4-1.9-0.9c-0.4-0.5-0.6-1.1-0.6-1.7c0-0.5,0.1-1.1,0.4-1.5
	c0.3-0.4,0.7-0.7,1.1-0.9c0.7-0.2,1.4-0.3,2.1-0.2h4v9.4H115.8z M115.8,270.2h-1.5c-0.5,0-1,0-1.5,0c-0.2,0-0.5,0.2-0.6,0.4
	c-0.2,0.2-0.3,0.5-0.3,0.8c0,0.3,0.1,0.6,0.2,0.8c0.2,0.2,0.4,0.3,0.6,0.4c0.5,0.1,1,0.1,1.6,0.1h1.4L115.8,270.2z"/>
<path d="M135.8,254l3.6-4.9l-3.2-4.5h1.5l1.7,2.4c0.4,0.5,0.6,0.9,0.8,1.1c0.2-0.4,0.5-0.7,0.7-1.1l1.9-2.5h1.4l-3.3,4.4l3.6,5h-1.5
	l-2.4-3.4c-0.1-0.2-0.3-0.4-0.4-0.6c-0.2,0.4-0.4,0.6-0.4,0.7l-2.4,3.2H135.8z"/>
<path class="st4" d="M164.1,268.6h1.9v2.2c0,0.5,0,1,0.1,1.5c0.1,0.3,0.2,0.5,0.5,0.6c0.4,0.2,0.8,0.3,1.2,0.3c0.4,0,0.7,0,1.1-0.1
	c0.3-0.1,0.6-0.2,0.8-0.4v-4h1.9v9.4h-1.9v-3.8c-0.4,0.2-0.7,0.3-1.1,0.4c-0.4,0.1-0.7,0.1-1.1,0.1c-0.8,0-1.7-0.2-2.4-0.7
	c-0.7-0.6-1-1.4-0.9-2.3L164.1,268.6z"/>
<path d="M197.1,250.7l1.2,0.3c-0.2,0.9-0.7,1.7-1.4,2.3c-0.7,0.5-1.6,0.8-2.5,0.8c-0.9,0-1.7-0.2-2.5-0.6c-0.7-0.4-1.2-1.1-1.4-1.8
	c-0.3-0.8-0.5-1.6-0.5-2.5c0-0.9,0.2-1.8,0.6-2.6c0.4-0.7,0.9-1.3,1.6-1.7c0.7-0.4,1.5-0.6,2.3-0.6c0.9,0,1.7,0.2,2.4,0.7
	c0.7,0.5,1.1,1.2,1.3,2l-1.2,0.3c-0.2-0.6-0.5-1.1-0.9-1.5c-0.5-0.3-1-0.5-1.6-0.5c-0.6,0-1.3,0.2-1.8,0.5c-0.5,0.3-0.8,0.8-1,1.4
	c-0.2,0.6-0.3,1.2-0.3,1.8c0,0.7,0.1,1.4,0.4,2.1c0.2,0.6,0.6,1,1.1,1.3c0.5,0.3,1,0.4,1.6,0.4c0.6,0,1.3-0.2,1.8-0.6
	C196.6,252,197,251.4,197.1,250.7z"/>
<path class="st4" d="M224.1,274.5l1.8,0.6c-0.2,0.9-0.7,1.7-1.4,2.3c-0.7,0.5-1.6,0.8-2.5,0.8c-1.2,0-2.3-0.4-3.1-1.3
	c-0.8-1-1.3-2.2-1.2-3.5c-0.1-1.3,0.3-2.6,1.2-3.6c0.8-0.9,2-1.3,3.2-1.3c1-0.1,2,0.3,2.8,1c0.5,0.5,0.8,1.1,1,1.7l-1.9,0.5
	c-0.2-1-1-1.6-2-1.6c-0.7,0-1.3,0.3-1.7,0.8c-0.5,0.7-0.7,1.6-0.6,2.4c-0.1,0.9,0.1,1.8,0.6,2.5c0.4,0.5,1,0.8,1.7,0.8
	c0.5,0,0.9-0.2,1.3-0.5C223.8,275.6,224,275.1,224.1,274.5z"/>
<path d="M247.4,254l-3.6-9.4h1.3l2.4,6.8c0.2,0.6,0.4,1.1,0.5,1.5c0.1-0.5,0.3-1,0.5-1.5l2.5-6.8h1.3l-3.7,9.4H247.4z"/>
<path class="st4" d="M271.4,278v-9.4h2.8l1.7,6.4l1.7-6.4h2.8v9.4h-1.8v-7.4l-1.9,7.4H275l-1.9-7.4v7.4H271.4z"/>
<path d="M298.7,254v-9.4h3.5c0.6,0,1.2,0.1,1.7,0.3c0.4,0.2,0.8,0.5,1,0.9c0.2,0.4,0.4,0.8,0.4,1.2c0,0.4-0.1,0.8-0.3,1.1
	c-0.2,0.4-0.6,0.7-1,0.9c0.5,0.1,1,0.4,1.3,0.9c0.3,0.4,0.5,0.9,0.5,1.4c0,0.4-0.1,0.8-0.3,1.2c-0.2,0.3-0.4,0.6-0.7,0.9
	c-0.3,0.2-0.6,0.4-1,0.5c-0.5,0.1-1,0.2-1.5,0.1H298.7z M299.9,248.6h2c0.4,0,0.8,0,1.2-0.1c0.3-0.1,0.5-0.2,0.7-0.5
	c0.2-0.2,0.3-0.5,0.2-0.8c0-0.3-0.1-0.6-0.2-0.8c-0.1-0.2-0.4-0.4-0.6-0.5c-0.5-0.1-0.9-0.2-1.4-0.1h-1.9L299.9,248.6z M299.9,252.9
	h2.3c0.3,0,0.6,0,0.9,0c0.3,0,0.5-0.1,0.7-0.3c0.2-0.1,0.4-0.3,0.5-0.5c0.1-0.2,0.2-0.5,0.2-0.8c0-0.3-0.1-0.6-0.3-0.9
	c-0.2-0.3-0.4-0.5-0.8-0.6c-0.4-0.1-0.9-0.2-1.4-0.2h-2.2V252.9z"/>
<path class="st4" d="M326.2,268.6h1.8v6.2l3.8-6.2h1.9v9.4h-1.8v-6.1l-3.8,6.1h-1.9L326.2,268.6z"/>
<path d="M352.4,254v-9.4h1.3l4.9,7.4v-7.4h1.2v9.4h-1.3l-4.9-7.4v7.4H352.4z"/>
<path class="st4" d="M383,278v-7.8h-2.8v-1.6h7.5v1.6h-2.8v7.8H383z"/>
<path d="M405.6,254v-9.4h1.9l2.2,6.6l0.5,1.4c0.1-0.3,0.3-0.8,0.5-1.5l2.2-6.5h1.7v9.4h-1.2v-7.9l-2.7,7.9h-1.1l-2.7-8v8H405.6z"/>
<path class="st4" d="M434.2,268.6h1.9v3.8h2.5c0.9-0.1,1.9,0.2,2.6,0.8c0.5,0.5,0.8,1.3,0.8,2c0,0.6-0.2,1.2-0.5,1.6
	c-0.3,0.4-0.7,0.7-1.1,0.9c-0.6,0.2-1.2,0.3-1.8,0.2h-4.4L434.2,268.6z M436.1,276.4h1.8c0.4,0,0.8,0,1.2-0.1
	c0.2-0.1,0.5-0.2,0.6-0.4c0.2-0.2,0.3-0.5,0.3-0.8c0-0.4-0.2-0.7-0.5-1c-0.5-0.2-1-0.3-1.6-0.3h-1.9V276.4z"/>
<path d="M461,249.9v-1.1l6.2-2.6v1.1l-4.9,2l4.9,2v1.1L461,249.9z"/>
<path class="st4" d="M488.2,268.6h7v1.6H490v2.2h2.5c0.6,0,1.2,0.1,1.7,0.3c0.5,0.2,0.9,0.5,1.2,1c0.6,1,0.6,2.3,0,3.3
	c-0.3,0.4-0.7,0.7-1.1,0.9c-0.6,0.2-1.2,0.3-1.8,0.2h-4.4L488.2,268.6z M490.1,276.4h1.8c0.4,0,0.8,0,1.2-0.1
	c0.2-0.1,0.5-0.2,0.6-0.4c0.2-0.2,0.3-0.5,0.3-0.8c0-0.4-0.2-0.7-0.5-1c-0.5-0.2-1-0.3-1.6-0.3h-1.9V276.4z"/>
<path d="M521.2,249.9l-6.2,2.7v-1.1l4.9-2l-4.9-2v-1.2l6.2,2.6L521.2,249.9z"/>
<path class="st4" d="M540.1,268.6h1.9v3.9h1.5c0.1-1.1,0.5-2.1,1.2-2.9c0.8-0.8,1.9-1.2,3.1-1.2c1.2-0.1,2.3,0.4,3.1,1.2
	c0.8,1,1.2,2.3,1.2,3.6c0,0.9-0.1,1.8-0.5,2.6c-0.3,0.7-0.8,1.3-1.4,1.7c-0.7,0.4-1.5,0.6-2.3,0.6c-0.8,0-1.5-0.1-2.2-0.4
	c-0.6-0.3-1.1-0.8-1.4-1.4c-0.4-0.7-0.7-1.4-0.7-2.2H542v3.9h-1.9L540.1,268.6z M545.4,273.3c-0.1,0.8,0.2,1.7,0.6,2.4
	c0.4,0.6,1.1,0.9,1.8,0.9c0.7,0,1.3-0.3,1.7-0.8c0.4-0.8,0.6-1.6,0.6-2.5c0.1-0.8-0.2-1.7-0.7-2.4c-0.4-0.5-1.1-0.8-1.7-0.8
	c-0.6,0-1.3,0.3-1.7,0.8C545.6,271.6,545.3,272.4,545.4,273.3L545.4,273.3z"/>
<path d="M163.3,196.5l1.2-0.1c0,0.4,0.2,0.8,0.4,1.2c0.2,0.3,0.6,0.6,0.9,0.7c0.5,0.2,1,0.3,1.4,0.3c0.4,0,0.8-0.1,1.2-0.2
	c0.3-0.1,0.6-0.3,0.8-0.6c0.2-0.2,0.3-0.5,0.3-0.8c0-0.3-0.1-0.6-0.3-0.8c-0.2-0.3-0.5-0.4-0.8-0.6c-0.6-0.2-1.1-0.3-1.7-0.5
	c-0.6-0.1-1.2-0.3-1.8-0.6c-0.4-0.2-0.8-0.5-1-0.9c-0.2-0.4-0.3-0.8-0.3-1.2c0-0.5,0.1-0.9,0.4-1.3c0.3-0.4,0.7-0.8,1.2-0.9
	c0.6-0.2,1.1-0.3,1.7-0.3c0.6,0,1.3,0.1,1.9,0.3c0.5,0.2,0.9,0.5,1.2,1c0.3,0.4,0.5,1,0.5,1.5l-1.2,0.1c0-0.5-0.3-1-0.6-1.4
	c-0.5-0.3-1.1-0.5-1.6-0.5c-0.6,0-1.2,0.1-1.6,0.4c-0.3,0.2-0.5,0.6-0.5,1c0,0.3,0.1,0.6,0.4,0.8c0.6,0.3,1.2,0.6,1.9,0.7
	c0.7,0.1,1.4,0.3,2.1,0.6c0.5,0.2,0.9,0.6,1.2,1c0.3,0.4,0.4,0.9,0.4,1.3c0,0.5-0.2,1-0.4,1.4c-0.3,0.4-0.7,0.8-1.2,1
	c-0.6,0.2-1.2,0.4-1.8,0.4c-0.7,0-1.5-0.1-2.1-0.4c-0.6-0.2-1-0.6-1.4-1.1C163.5,197.7,163.3,197.1,163.3,196.5z"/>
<path class="st4" d="M189.5,214.1h1.9v3.8h2.5c0.6,0,1.2,0.1,1.7,0.3c0.5,0.2,0.9,0.5,1.2,1c0.3,0.5,0.5,1,0.5,1.6
	c0,0.6-0.2,1.2-0.5,1.6c-0.3,0.4-0.7,0.7-1.1,0.9c-0.6,0.2-1.2,0.3-1.8,0.2h-4.4V214.1z M191.4,221.9h1.9c0.4,0,0.8,0,1.2-0.1
	c0.2-0.1,0.5-0.2,0.6-0.4c0.2-0.2,0.3-0.5,0.3-0.8c0-0.4-0.1-0.7-0.4-0.9c-0.5-0.3-1.1-0.4-1.6-0.3h-1.9V221.9z M198.4,214.1h1.9
	v9.4h-1.9V214.1z"/>
<path d="M217.4,199.5v-9.4h3.2c0.6,0,1.1,0,1.7,0.1c0.5,0.1,1,0.3,1.4,0.7c0.5,0.4,0.9,1,1.1,1.6c0.3,0.7,0.4,1.5,0.4,2.2
	c0,0.6-0.1,1.3-0.2,1.9c-0.1,0.5-0.4,1-0.6,1.4c-0.2,0.3-0.5,0.6-0.9,0.9c-0.3,0.2-0.7,0.4-1.1,0.5c-0.5,0.1-1,0.2-1.5,0.2H217.4z
	 M218.6,198.4h2c0.5,0,1,0,1.5-0.2c0.3-0.1,0.6-0.3,0.8-0.5c0.3-0.3,0.5-0.7,0.7-1.2c0.2-0.6,0.3-1.2,0.2-1.8c0-0.8-0.1-1.6-0.5-2.3
	c-0.3-0.5-0.7-0.9-1.2-1.1c-0.5-0.2-1.1-0.2-1.6-0.2h-2L218.6,198.4z"/>
<path class="st4" d="M245.1,214.1h3.8c0.6,0,1.1,0,1.7,0.1c0.4,0.1,0.7,0.2,1,0.4c0.3,0.2,0.5,0.5,0.7,0.8c0.2,0.3,0.3,0.7,0.3,1.1
	c0,0.4-0.1,0.9-0.4,1.2c-0.2,0.4-0.6,0.7-1,0.8c0.5,0.1,1,0.4,1.3,0.9c0.3,0.4,0.5,0.9,0.5,1.4c0,0.4-0.1,0.9-0.3,1.2
	c-0.4,0.8-1.2,1.4-2.1,1.4c-0.3,0-1.1,0.1-2.3,0.1h-3.2L245.1,214.1z M247,215.6v2.2h1.2c0.5,0,0.9,0,1.4,0c0.3,0,0.6-0.1,0.8-0.3
	c0.2-0.2,0.3-0.5,0.3-0.7c0-0.3-0.1-0.5-0.2-0.7c-0.2-0.2-0.4-0.3-0.7-0.3c-0.2,0-0.7,0-1.6,0L247,215.6z M247,219.4v2.5h1.8
	c0.4,0,0.9,0,1.3-0.1c0.3,0,0.5-0.2,0.7-0.4c0.2-0.2,0.3-0.5,0.3-0.8c0-0.3-0.1-0.5-0.2-0.7c-0.1-0.2-0.4-0.4-0.6-0.4
	c-0.6-0.1-1.1-0.2-1.7-0.1H247z"/>
<path d="M272.2,199.5v-9.4h6.3v1.1h-5.1v2.9h4.4v1.1h-4.4v4.3H272.2z"/>
<path class="st4" d="M307.6,223.5h-2.1l-0.8-2.1h-3.8l-0.8,2.1h-2l3.6-9.4h2L307.6,223.5z M304.1,219.8l-1.3-3.5l-1.3,3.5H304.1z"/>
<path d="M329.4,195.8v-1.1h4v3.5c-0.6,0.5-1.2,0.8-1.9,1.1c-0.6,0.2-1.3,0.4-2,0.4c-0.9,0-1.7-0.2-2.5-0.6c-0.7-0.4-1.3-1-1.7-1.7
	c-0.4-0.8-0.6-1.6-0.6-2.5c0-0.9,0.2-1.8,0.6-2.6c0.3-0.8,0.9-1.4,1.6-1.8c0.8-0.4,1.6-0.6,2.5-0.6c0.6,0,1.3,0.1,1.9,0.3
	c0.5,0.2,1,0.5,1.3,0.9c0.3,0.5,0.6,1,0.7,1.5l-1.1,0.3c-0.1-0.4-0.3-0.8-0.5-1.1c-0.2-0.3-0.5-0.5-0.9-0.7
	c-0.4-0.2-0.8-0.3-1.3-0.2c-0.5,0-1,0.1-1.5,0.3c-0.4,0.2-0.7,0.4-1,0.7c-0.2,0.3-0.4,0.6-0.6,0.9c-0.2,0.6-0.4,1.2-0.4,1.9
	c0,0.7,0.1,1.5,0.4,2.1c0.3,0.5,0.7,1,1.3,1.2c0.5,0.3,1.1,0.4,1.8,0.4c0.5,0,1.1-0.1,1.6-0.3c0.4-0.2,0.8-0.4,1.2-0.7v-1.8
	L329.4,195.8z"/>
<path class="st4" d="M353.2,214.1h7.5v9.4h-1.9v-7.8h-3.7v7.8h-1.9V214.1z"/>
<path d="M379.4,199.5v-9.4h1.2v3.9h4.9v-3.9h1.2v9.4h-1.2v-4.4h-4.9v4.4L379.4,199.5z"/>
<path class="st4" d="M407.5,223.5v-9.4h3c0.8,0,1.5,0,2.2,0.1c0.5,0.1,1,0.5,1.4,0.9c0.4,0.5,0.6,1.2,0.5,1.8c0,0.5-0.1,1-0.3,1.4
	c-0.2,0.4-0.5,0.7-0.8,0.9c-0.3,0.2-0.6,0.4-1,0.4c-0.7,0.1-1.3,0.1-2,0.1h-1.2v3.6H407.5z M409.4,215.7v2.7h1c0.5,0,1,0,1.5-0.1
	c0.2-0.1,0.4-0.2,0.6-0.5c0.1-0.2,0.2-0.5,0.2-0.7c0-0.3-0.1-0.6-0.3-0.9c-0.2-0.2-0.5-0.4-0.8-0.4c-0.5-0.1-0.9-0.1-1.4-0.1H409.4z
	"/>
<path d="M434.2,196.9l1.1-0.2c0,0.5,0.1,1,0.4,1.5c0.3,0.3,0.6,0.4,1,0.4c0.3,0,0.6-0.1,0.8-0.2c0.2-0.1,0.4-0.3,0.5-0.6
	c0.1-0.4,0.1-0.8,0.1-1.2v-6.5h1.2v6.4c0,0.6-0.1,1.2-0.3,1.8c-0.2,0.4-0.5,0.8-0.9,1c-0.4,0.2-0.9,0.3-1.5,0.3
	c-0.7,0.1-1.4-0.2-1.9-0.7C434.4,198.4,434.1,197.6,434.2,196.9z"/>
<path class="st4" d="M460.4,218.8c0-0.8,0.1-1.6,0.4-2.4c0.2-0.5,0.5-0.9,0.9-1.3c0.3-0.4,0.8-0.7,1.2-0.9c0.6-0.3,1.3-0.4,2-0.4
	c1.2-0.1,2.5,0.4,3.3,1.3c1.6,2.1,1.6,5,0,7.1c-1.9,1.7-4.8,1.7-6.6,0C460.7,221.4,460.3,220.1,460.4,218.8z M462.4,218.8
	c-0.1,0.9,0.2,1.7,0.7,2.4c1,1,2.6,1.1,3.6,0.1c0,0,0.1-0.1,0.1-0.1c0.5-0.7,0.8-1.6,0.7-2.4c0.1-0.9-0.2-1.7-0.7-2.4
	c-1-1-2.7-1.1-3.7,0c0,0,0,0,0,0C462.5,217,462.3,217.9,462.4,218.8L462.4,218.8z"/>
<path d="M487.7,199.5v-9.4h1.2v4.7l4.7-4.7h1.7l-3.9,3.8l4.1,5.6h-1.6l-3.4-4.8l-1.5,1.5v3.2H487.7z"/>
<path class="st4" d="M515.9,214.1h6.6v9.4h-1.9v-7.8h-2.8v4c0,0.8,0,1.6-0.1,2.4c-0.1,0.4-0.3,0.8-0.6,1.1c-0.4,0.3-0.9,0.4-1.4,0.4
	c-0.2,0-0.6,0-1.2-0.1V222h0.4c0.3,0,0.6,0,0.8-0.2c0.1-0.1,0.2-0.4,0.2-0.8L515.9,214.1L515.9,214.1z"/>
<path d="M542.7,199.5v-9.4h1.2v8.3h4.6v1.1H542.7z"/>
<path class="st4" d="M569.9,214.1h6.5v7.8h0.8v3.6h-1.6v-2h-5.9v2h-1.6v-3.6h0.8c0.4-0.9,0.7-1.8,0.8-2.8c0.1-1.3,0.2-2.7,0.2-4
	V214.1z M571.7,215.7c0.1,2.1-0.2,4.2-0.8,6.2h3.6v-6.2H571.7z"/>
<path class="st4" d="M627.8,214.1v4c0.3,0,0.5-0.1,0.7-0.4c0.3-0.5,0.5-0.9,0.7-1.4c0.2-0.7,0.6-1.4,1.2-1.9
	c0.6-0.3,1.3-0.5,1.9-0.4h0.3v1.4h-0.3c-0.3,0-0.6,0-0.8,0.1c-0.2,0.1-0.3,0.3-0.4,0.4c-0.2,0.4-0.4,0.8-0.5,1.2
	c-0.1,0.3-0.2,0.6-0.4,0.8c-0.2,0.3-0.4,0.5-0.7,0.6c0.4,0.1,0.8,0.4,1,0.7c0.4,0.5,0.7,1,0.9,1.5l1.3,2.6h-2.2l-1.1-2.4
	c0-0.1-0.1-0.1-0.1-0.2c0-0.1-0.1-0.2-0.2-0.4c-0.1-0.3-0.3-0.6-0.6-0.9c-0.2-0.1-0.4-0.2-0.6-0.2v4.1H626v-4.1
	c-0.2,0-0.4,0.1-0.6,0.2c-0.3,0.2-0.5,0.5-0.6,0.9l-0.2,0.4c0,0.1-0.1,0.1-0.1,0.2l-1.1,2.4h-2.2l1.3-2.6c0.3-0.5,0.6-1,0.9-1.5
	c0.3-0.4,0.6-0.6,1.1-0.7c-0.3-0.1-0.5-0.4-0.7-0.6c-0.2-0.3-0.3-0.5-0.4-0.8c-0.1-0.4-0.3-0.8-0.5-1.2c-0.1-0.2-0.2-0.3-0.4-0.4
	c-0.3-0.1-0.6-0.2-0.9-0.1h-0.2V214h0.3c0.7-0.1,1.4,0.1,2,0.4c0.5,0.5,0.9,1.1,1.1,1.9c0.2,0.5,0.4,1,0.7,1.4
	c0.2,0.2,0.4,0.3,0.7,0.4v-4L627.8,214.1z"/>
<path class="st4" d="M680,218h3c0-0.6-0.3-1.3-0.7-1.8c-0.4-0.5-1-0.7-1.6-0.7c-0.5,0-0.9,0.1-1.3,0.4c-0.4,0.3-0.6,0.7-0.7,1.1
	l-1.9-0.4c0.2-0.8,0.6-1.5,1.3-2c0.7-0.5,1.6-0.8,2.6-0.8c1.2-0.1,2.4,0.4,3.2,1.4c0.8,1,1.2,2.3,1.2,3.6c0,0.9-0.2,1.8-0.5,2.6
	c-0.3,0.7-0.8,1.3-1.5,1.7c-0.7,0.4-1.5,0.6-2.2,0.6c-1.9,0.2-3.7-1.1-4-3l1.9-0.6c0,0.6,0.3,1.1,0.7,1.5c0.4,0.3,0.9,0.5,1.4,0.5
	c0.5,0,1.1-0.2,1.4-0.6c0.4-0.5,0.7-1.2,0.8-1.9h-3L680,218z"/>
<path d="M150.1,145.7l-2.5-9.4h1.3l1.4,6.2c0.1,0.7,0.3,1.3,0.4,1.9c0.2-1,0.4-1.6,0.4-1.7l1.8-6.3h1.5l1.4,4.8
	c0.3,1.1,0.6,2.2,0.7,3.3c0.1-0.6,0.3-1.3,0.5-2l1.5-6h1.2l-2.6,9.4h-1.2l-2-7.1c-0.2-0.6-0.3-1-0.3-1.1c-0.1,0.4-0.2,0.8-0.3,1.1
	l-2,7.1L150.1,145.7z"/>
<path class="st4" d="M177.6,160.3h1.9v7.8h3.7v-7.8h1.9v7.8h0.8v3.6h-1.6v-2.1h-6.7L177.6,160.3z"/>
<path d="M204.3,145.7v-9.4h6.8v1.1h-5.6v2.9h5.2v1.1h-5.2v3.2h5.8v1.1H204.3z"/>
<path class="st4" d="M231.3,160.3h2.1l2.2,4.9l1.9-4.9h2l-3.2,7.1c-0.3,0.6-0.6,1.2-1.1,1.8c-0.4,0.4-0.9,0.6-1.4,0.6
	c-0.4,0-0.9,0-1.3-0.1v-1.4h0.7c0.3,0,0.7-0.1,0.9-0.2c0.3-0.3,0.4-0.6,0.6-1L231.3,160.3z"/>
<path d="M257.9,145.7v-9.4h4.2c0.6,0,1.3,0.1,1.9,0.2c0.4,0.2,0.8,0.5,1,0.9c0.3,0.4,0.4,0.9,0.4,1.4c0,0.6-0.2,1.2-0.6,1.7
	c-0.5,0.5-1.3,0.8-2,0.9c0.3,0.1,0.5,0.3,0.8,0.5c0.4,0.4,0.7,0.8,1,1.2l1.6,2.6h-1.6l-1.2-2c-0.3-0.4-0.6-0.9-0.9-1.3
	c-0.2-0.2-0.4-0.5-0.6-0.6c-0.2-0.1-0.4-0.2-0.6-0.2c-0.2,0-0.5-0.1-0.7-0.1h-1.4v4.2L257.9,145.7z M259.1,140.5h2.7
	c0.5,0,0.9,0,1.3-0.2c0.3-0.1,0.6-0.3,0.7-0.6c0.2-0.2,0.3-0.5,0.2-0.8c0-0.4-0.2-0.8-0.5-1.1c-0.4-0.3-1-0.5-1.5-0.4h-3
	L259.1,140.5z"/>
<path class="st4" d="M286.4,160.3h1.9v4c0.3,0,0.6-0.1,0.9-0.3c0.3-0.5,0.5-0.9,0.7-1.5c0.2-0.7,0.6-1.4,1.2-1.9
	c0.6-0.3,1.2-0.4,1.9-0.4h0.3v1.4h-0.3c-0.3,0-0.6,0-0.9,0.1c-0.2,0.1-0.3,0.3-0.4,0.4c-0.2,0.4-0.4,0.8-0.5,1.2
	c-0.1,0.3-0.2,0.6-0.4,0.8c-0.2,0.3-0.4,0.5-0.7,0.6c0.4,0.1,0.8,0.4,1,0.7c0.3,0.5,0.6,1,0.9,1.5l1.3,2.6h-2.2l-1.1-2.4
	c0-0.1-0.1-0.1-0.1-0.2c0,0-0.1-0.2-0.2-0.4c-0.1-0.3-0.4-0.6-0.6-0.9c-0.2-0.1-0.5-0.2-0.7-0.2v4.1h-1.9L286.4,160.3z"/>
<path d="M315.1,145.7v-8.3H312v-1.1h7.5v1.1h-3.1v8.3H315.1z"/>
<path class="st4" d="M340,169.7v-9.4h7v1.6h-5.1v2.1h4.7v1.6h-4.7v2.6h5.2v1.6L340,169.7z"/>
<path d="M369,145.6v-4l-3.6-5.4h1.5l1.9,2.8c0.3,0.5,0.7,1.1,1,1.6c0.3-0.5,0.6-1,1-1.7l1.8-2.8h1.5l-3.8,5.4v4H369z"/>
<path class="st4" d="M393.6,169.6v-9.4h1.9v3.7h3.7v-3.7h1.9v9.4h-1.9v-4.1h-3.7v4.1H393.6z"/>
<path d="M425,136.3h1.2v5.4c0,0.8-0.1,1.5-0.3,2.2c-0.2,0.6-0.6,1-1.1,1.4c-0.7,0.4-1.4,0.6-2.2,0.5c-0.7,0-1.5-0.1-2.2-0.4
	c-0.5-0.3-1-0.8-1.2-1.3c-0.3-0.8-0.4-1.6-0.4-2.4v-5.4h1.2v5.4c0,0.6,0,1.2,0.2,1.8c0.2,0.4,0.4,0.7,0.8,0.9
	c0.4,0.2,0.9,0.3,1.4,0.3c0.7,0.1,1.5-0.1,2-0.6c0.5-0.7,0.7-1.5,0.6-2.4L425,136.3z"/>
<path class="st4" d="M447.7,160.3h6.4v1.6h-4.5v7.8h-1.9V160.3z"/>
<path d="M475.8,145.7v-9.4h1.2v9.4H475.8z"/>
<path class="st4" d="M498.6,160.3h1.9v7.8h2.7v-7.8h1.9v7.8h2.8v-7.8h1.9v9.4h-11.2V160.3z"/>
<path d="M526.1,141.1c-0.1-1.3,0.4-2.7,1.3-3.7c0.8-0.9,2-1.4,3.2-1.3c0.8,0,1.6,0.2,2.3,0.6c0.7,0.4,1.2,1,1.6,1.7
	c0.8,1.6,0.8,3.5,0,5.1c-0.4,0.7-0.9,1.3-1.6,1.7c-0.7,0.4-1.5,0.6-2.3,0.6c-0.8,0-1.7-0.2-2.4-0.6c-0.7-0.4-1.2-1-1.6-1.8
	C526.3,142.8,526.1,142,526.1,141.1z M527.4,141.1c-0.1,1,0.3,1.9,0.9,2.7c1.2,1.3,3.2,1.3,4.5,0.1c0,0,0.1-0.1,0.1-0.1
	c0.6-0.8,1-1.8,0.9-2.8c0-0.7-0.1-1.4-0.4-2c-0.2-0.5-0.6-1-1.1-1.3c-1.3-0.8-2.9-0.6-4,0.4C527.6,139,527.3,140.1,527.4,141.1
	L527.4,141.1z"/>
<path class="st4" d="M552.7,160.3h1.9v7.8h2.7v-7.8h1.9v7.8h2.8v-7.8h1.9v7.8h0.8v3.6h-1.6v-2.1h-10.5V160.3z"/>
<path d="M582.4,145.6v-9.4h3.5c0.5,0,1,0,1.4,0.1c0.4,0.1,0.8,0.2,1.2,0.4c0.3,0.2,0.6,0.5,0.8,0.9c0.5,1.1,0.3,2.4-0.5,3.3
	c-0.8,0.6-1.8,0.9-2.8,0.8h-2.4v3.8L582.4,145.6z M583.6,140.7h2.4c0.6,0.1,1.2-0.1,1.7-0.4c0.4-0.3,0.5-0.8,0.5-1.3
	c0-0.4-0.1-0.7-0.3-1c-0.2-0.3-0.5-0.5-0.8-0.6c-0.4-0.1-0.8-0.1-1.2-0.1h-2.4V140.7z"/>
<path class="st4" d="M611.6,162.8l-1.8-0.4c0.4-1.5,1.5-2.3,3.4-2.3c0.9-0.1,1.8,0.2,2.5,0.7c0.5,0.4,0.8,1,0.8,1.7
	c0,0.4-0.1,0.9-0.4,1.2c-0.3,0.4-0.7,0.7-1.2,0.9c0.5,0.2,1,0.5,1.4,0.9c0.3,0.4,0.5,0.9,0.5,1.4c0,0.8-0.3,1.5-0.9,2
	c-0.8,0.6-1.8,0.8-2.7,0.8c-0.8,0-1.6-0.1-2.3-0.5c-0.6-0.4-1.1-1.1-1.3-1.8l1.7-0.6c0.1,0.4,0.3,0.8,0.7,1.1
	c0.3,0.2,0.7,0.3,1.1,0.2c0.5,0,0.9-0.1,1.3-0.4c0.3-0.2,0.4-0.5,0.4-0.9c0-0.4-0.2-0.7-0.5-0.9c-0.4-0.3-0.9-0.4-1.4-0.4h-0.4v-1.4
	h0.2c0.5,0,0.9-0.1,1.3-0.4c0.3-0.2,0.5-0.6,0.5-1c0-0.3-0.1-0.6-0.4-0.9c-0.3-0.3-0.7-0.4-1.1-0.4
	C612.4,161.6,611.7,162.1,611.6,162.8z"/>
<path class="st4" d="M663,169.7l3.2-4.9l-2.9-4.5h2.2l1.9,3l1.8-3h2.2l-2.9,4.6l3.2,4.8h-2.3l-2.1-3.2l-2.1,3.2L663,169.7z"/>
<path class="st4" d="M715.8,160.3h4.7v3.8h2.5c0.6,0,1.2,0.1,1.7,0.3c0.5,0.2,0.9,0.6,1.2,1c0.3,0.5,0.5,1,0.5,1.6
	c0,0.6-0.2,1.2-0.5,1.6c-0.3,0.4-0.7,0.7-1.1,0.9c-0.6,0.2-1.2,0.3-1.8,0.2h-4.4v-7.8h-2.8V160.3z M720.5,168.1h1.8
	c0.4,0,0.8,0,1.2-0.1c0.2-0.1,0.5-0.2,0.6-0.4c0.2-0.2,0.3-0.5,0.3-0.8c0-0.4-0.1-0.7-0.5-0.9c-0.5-0.3-1-0.4-1.6-0.3h-1.9V168.1z"
	/>
<path d="M235.2,92.8v-2.2h-4.1v-1.1l4.3-6.1h0.9v6.1h1.3v1.1h-1.3v2.2H235.2z M235.2,89.4v-4.2l-2.9,4.2H235.2z"/>
<path class="st4" d="M266.9,118.8h-1.6v-2h-1.1v-4.1h-3.7v4.1h-1.9v-9.4h1.9v3.6h3.7v-3.7h1.9v7.8h0.8V118.8z"/>
<path d="M285.4,90.3l1.2-0.1c0,0.5,0.3,1,0.6,1.3c0.3,0.3,0.7,0.4,1.2,0.4c0.5,0,1.1-0.2,1.4-0.6c0.4-0.5,0.6-1.1,0.6-1.7
	c0-0.6-0.2-1.1-0.5-1.6c-0.4-0.4-0.9-0.6-1.5-0.6c-0.7,0-1.3,0.3-1.7,0.9l-1.1-0.1l0.9-4.8h4.7v1.1h-3.8l-0.5,2.5
	c0.5-0.4,1.1-0.6,1.8-0.6c0.8,0,1.5,0.3,2.1,0.8c0.6,0.6,0.9,1.4,0.9,2.2c0,0.8-0.2,1.6-0.8,2.2c-0.6,0.8-1.5,1.2-2.5,1.1
	c-0.8,0-1.5-0.2-2.1-0.7C285.7,91.7,285.4,91,285.4,90.3z"/>
<path class="st4" d="M319.9,108.9h-4.5v2.5h1.9v1.2h-1.9v4.1h-1.9v-4.1h-1.1v-1.2h1.1v-4.1h6.4V108.9z"/>
<path d="M448.7,87.7c-0.4-0.1-0.8-0.4-1.1-0.8c-0.2-0.3-0.4-0.7-0.3-1.2c0-0.7,0.3-1.3,0.8-1.7c1.1-0.9,2.8-0.9,3.9,0
	c0.5,0.4,0.8,1.1,0.8,1.7c0,0.4-0.1,0.8-0.3,1.1c-0.3,0.3-0.6,0.6-1,0.7c0.5,0.2,1,0.5,1.3,0.9c0.3,0.4,0.5,1,0.5,1.5
	c0,0.8-0.3,1.5-0.9,2c-1.3,1.1-3.2,1.1-4.5,0c-0.6-0.5-0.9-1.3-0.9-2.1c0-0.5,0.1-1.1,0.5-1.5C447.7,88,448.2,87.8,448.7,87.7z
	 M448,90c0,0.3,0.1,0.7,0.2,0.9c0.2,0.3,0.4,0.6,0.7,0.7c0.3,0.2,0.7,0.3,1,0.2c0.5,0,1-0.2,1.4-0.5c0.4-0.4,0.6-0.8,0.5-1.3
	c0-0.5-0.2-1-0.5-1.4c-0.4-0.4-0.9-0.6-1.4-0.6C448.9,88.1,448.1,88.9,448,90C448,89.9,448,90,448,90z M448.4,85.7
	c0,0.4,0.1,0.8,0.4,1.1c0.3,0.3,0.7,0.4,1.1,0.4c0.4,0,0.8-0.1,1.1-0.4c0.3-0.3,0.4-0.6,0.4-1c0-0.4-0.2-0.8-0.4-1.1
	c-0.6-0.6-1.6-0.6-2.2,0C448.6,85,448.4,85.3,448.4,85.7L448.4,85.7z"/>
<path class="st4" d="M481.4,107.3l-2.7,5.5v3.9h-1.8v-3.9l-2.7-5.5h2l1.3,2.7c0.1,0.3,0.3,0.6,0.3,0.9c0.1-0.3,0.2-0.6,0.4-0.9
	l1.3-2.7H481.4z"/>
<path d="M500.9,90.6l1.1-0.1c0,0.4,0.2,0.8,0.5,1.1c0.3,0.2,0.6,0.4,1,0.3c0.3,0,0.6-0.1,0.9-0.2c0.3-0.2,0.5-0.4,0.6-0.7
	c0.2-0.3,0.4-0.7,0.4-1.1c0.1-0.5,0.2-0.9,0.2-1.4c0,0,0-0.1,0-0.2c-0.5,0.8-1.3,1.2-2.2,1.2c-0.8,0-1.5-0.3-2-0.8
	c-0.5-0.6-0.8-1.4-0.8-2.2c0-0.8,0.3-1.7,0.8-2.3c0.5-0.6,1.3-0.9,2.1-0.9c0.6,0,1.2,0.2,1.7,0.5c0.5,0.3,0.9,0.8,1.1,1.4
	c0.3,0.8,0.4,1.7,0.4,2.6c0,1-0.1,1.9-0.4,2.9c-0.2,0.6-0.6,1.2-1.2,1.6c-0.5,0.4-1.2,0.6-1.8,0.6C502.1,93,501,92,500.9,90.6
	C500.9,90.6,500.9,90.6,500.9,90.6L500.9,90.6z M505.6,86.4c0-0.6-0.2-1.1-0.5-1.6c-0.3-0.4-0.8-0.6-1.3-0.6c-0.5,0-1,0.2-1.3,0.6
	c-0.4,0.5-0.6,1-0.6,1.6c0,0.5,0.2,1.1,0.5,1.5c0.3,0.4,0.8,0.6,1.3,0.6c0.5,0,1-0.2,1.3-0.6C505.5,87.6,505.7,87,505.6,86.4z"/>
<path class="st4" d="M535.2,107.3l-2,4.1h1.7v1.4h-2.4v3.9h-1.8v-3.9h-2.4v-1.4h1.7l-2-4.1h2l1.3,2.7c0.1,0.3,0.3,0.6,0.3,0.9
	c0.1-0.3,0.2-0.6,0.3-0.9l1.3-2.7H535.2z"/>
<path d="M554.6,88.1c0-0.9,0.1-1.8,0.3-2.7c0.2-0.6,0.5-1.1,1-1.6c0.5-0.4,1.1-0.6,1.7-0.6c0.5,0,0.9,0.1,1.3,0.3
	c0.4,0.2,0.7,0.5,0.9,0.9c0.3,0.4,0.5,0.9,0.6,1.4c0.2,0.7,0.2,1.5,0.2,2.2c0,0.9-0.1,1.8-0.3,2.7c-0.2,0.6-0.5,1.1-1,1.6
	c-1.2,0.9-2.9,0.7-3.8-0.4C554.8,90.8,554.5,89.5,554.6,88.1z M555.8,88.1c-0.1,1.1,0.1,2.1,0.5,3.1c0.4,0.7,1.4,1,2.1,0.5
	c0.2-0.1,0.4-0.3,0.5-0.5c0.5-1,0.6-2,0.5-3.1c0.1-1.1-0.1-2.2-0.5-3.1c-0.3-0.5-0.8-0.8-1.3-0.8c-0.5,0-1,0.2-1.3,0.7
	C555.9,85.9,555.7,87,555.8,88.1z"/>
<path class="st4" d="M589.3,118.8h-1.6v-2h-0.6l-1.1-2.5c0,0,0-0.1-0.1-0.2l-0.2-0.4c-0.1-0.3-0.3-0.5-0.5-0.8
	c-0.2-0.2-0.5-0.3-0.8-0.3v4.1h-1.9v-9.4h1.9v4c0.4,0,0.8-0.2,1.1-0.6c0-0.1,0.2-0.5,0.5-1.2c0.2-0.7,0.6-1.3,1.1-1.8
	c0.6-0.4,1.3-0.5,2-0.5h0.3v1.4H589c-0.5-0.1-1,0.2-1.3,0.6c-0.2,0.4-0.4,0.8-0.5,1.2c-0.1,0.3-0.2,0.6-0.4,0.8
	c-0.2,0.2-0.4,0.5-0.7,0.6c0.4,0.1,0.8,0.4,1,0.7c0.4,0.5,0.7,1,0.9,1.5l0.5,1h0.8L589.3,118.8z"/>
<path class="st4" d="M643.9,112c0.1,1.2-0.3,2.5-1.1,3.4c-0.8,0.9-2,1.5-3.3,1.4c-1.7,0.2-3.3-0.7-4.1-2.2c-0.4-0.8-0.6-1.7-0.6-2.6
	c-0.1-1.3,0.3-2.5,1.1-3.5c0.9-0.9,2.1-1.5,3.4-1.4c1.3-0.1,2.5,0.4,3.4,1.4C643.5,109.5,643.9,110.7,643.9,112z M641.9,111.2
	c-0.1-0.7-0.3-1.3-0.8-1.8c-1.1-1-2.7-0.9-3.7,0.1c-0.4,0.5-0.6,1-0.7,1.6H641.9z M641.9,112.8h-5.1c0.1,0.6,0.3,1.2,0.7,1.6
	c1,1,2.6,1.1,3.6,0.1c0,0,0.1-0.1,0.1-0.1C641.6,114,641.8,113.4,641.9,112.8L641.9,112.8z"/>
<path class="st4" d="M697,116.7h-1.9v-2.2c0-0.7,0-1,0-1.1c0-0.4-0.2-0.7-0.5-0.9c-0.4-0.2-0.8-0.3-1.2-0.3c-0.7,0-1.3,0.1-1.9,0.5
	v4h-1.9v-9.4h1.9v3.8c0.7-0.3,1.5-0.5,2.2-0.5c2.2,0,3.3,1,3.3,3L697,116.7z"/>
<path class="st1" d="M715.1,77.2h38c2.2,0,4,1.8,4,4v38c0,2.2-1.8,4-4,4h-38c-2.2,0-4-1.8-4-4v-38C711.1,79,712.9,77.2,715.1,77.2z"
	/>
<path class="st2" d="M716.1,78.2h36c2.2,0,4,1.8,4,4v34c0,2.2-1.8,4-4,4h-36c-2.2,0-4-1.8-4-4v-34C712.1,80,713.9,78.2,716.1,78.2z"
	/>
<path class="st4" d="M746.2,83.2h1.3l2.3,9.7h-1.3L746.2,83.2z"/>
<path class="st4" d="M746.2,108.7l2.3-9.7h1.3l-2.3,9.7L746.2,108.7z"/>
</svg>
